<svg width="75" height="110" fill="none" xmlns="http://www.w3.org/2000/svg"><g clip-path="url(#clip0)"><path d="M43.423 34.712v-7.963h-11.94v8.01C13.64 37.62 0 53.26 0 72.141 0 93.073 16.803 110 37.476 110c20.674 0 37.477-16.974 37.477-37.859.047-18.881-13.64-34.568-31.53-37.43z" fill="#ACCDFF"/><path d="M17.322 91.5c4.343 1.573 8.543 3.671 12.697 5.96s8.26 4.673 12.46 7.057a297.59 297.59 0 006.609 3.671c2.218-.715 4.342-1.669 6.371-2.765-3.492-1.669-6.985-3.529-10.478-5.436-4.2-2.289-8.401-4.625-12.744-6.77-4.342-2.194-8.826-4.197-13.593-5.627-2.36-.715-4.814-1.335-7.316-1.621-2.502-.286-5.098-.286-7.646.19-.33.048-.614.144-.897.191.425 1.05.897 2.05 1.369 3.052H4.2c2.171-.239 4.39-.096 6.608.286 2.17.334 4.39 1.001 6.513 1.812zm12.697-47.777c4.154 2.29 8.26 4.673 12.46 7.057 4.201 2.384 8.402 4.768 12.98 6.77 2.266 1.002 4.626 1.956 7.175 2.528 1.274.334 2.596.524 4.012.572.33.048.708 0 1.038 0 .378 0 .708 0 1.086-.095l1.085-.143c.378-.096.708-.19 1.086-.286.66-.191 1.274-.477 1.935-.763-.52-1.478-1.133-2.861-1.794-4.244l-.566.143c-.236.048-.425.096-.66.143-.897.143-1.841.096-2.833 0-.519-.047-.99-.143-1.51-.238-.52-.096-1.038-.19-1.558-.334-2.076-.524-4.248-1.335-6.324-2.24-4.201-1.86-8.402-4.102-12.603-6.39-4.2-2.289-8.401-4.625-12.743-6.77-2.219-1.145-4.532-2.194-6.844-3.196a34.25 34.25 0 00-5.57 2.48c3.398 1.478 6.797 3.195 10.148 5.006zm2.218-14.971a4.739 4.739 0 00-.708-.334v5.435c3.635 1.955 7.27 4.101 10.95 6.199 4.201 2.384 8.402 4.768 12.98 6.77 2.266 1.002 4.626 1.956 7.175 2.528 1.274.334 2.596.524 4.012.572.33.048.708 0 1.038 0h.236a39.129 39.129 0 00-5.617-6.246c-1.557-.477-3.162-1.097-4.72-1.764-4.2-1.86-8.401-4.101-12.602-6.39-.472-.238-.944-.524-1.416-.763-.047 0-.094 0-.141-.047v-.048c-3.682-2.003-7.41-4.053-11.187-5.912zm0 75.145c-4.342-2.194-8.826-4.196-13.593-5.627-2.36-.715-4.814-1.335-7.316-1.62a44.65 44.65 0 00-2.549-.191 34.893 34.893 0 004.342 4.434c1.416.381 2.832.81 4.248 1.335 4.343 1.573 8.544 3.671 12.697 5.96l2.832 1.574c1.51.19 3.068.286 4.626.286 1.888 0 3.681-.143 5.475-.429-3.54-1.955-7.127-3.91-10.762-5.722zm41.819-29.086l-.566.477c-.095.096-.19.191-.283.239l-.284.19c-.189.143-.377.287-.566.382l-.614.286c-.188.095-.424.143-.613.238-.19.096-.425.143-.661.191-.236.048-.425.095-.66.143-.898.143-1.842.095-2.833 0-.519-.048-.991-.143-1.51-.238-.52-.096-1.039-.191-1.558-.334-2.077-.525-4.248-1.335-6.325-2.241-4.2-1.86-8.401-4.1-12.602-6.39-4.2-2.288-8.401-4.624-12.744-6.77-4.342-2.193-8.826-4.196-13.593-5.626-2.36-.716-4.814-1.335-7.316-1.622-2.171-.238-4.342-.286-6.56 0A36.418 36.418 0 003.02 57.36a8.725 8.725 0 011.18-.19c2.171-.239 4.39-.096 6.608.286 2.218.381 4.437 1.048 6.56 1.86 4.343 1.573 8.544 3.67 12.697 5.96 4.154 2.288 8.26 4.672 12.46 7.056 4.202 2.384 8.402 4.768 12.98 6.77 2.266 1.002 4.626 1.956 7.175 2.528 1.274.334 2.596.524 4.012.572.33.048.708 0 1.038 0 .378 0 .708 0 1.086-.095l1.086-.143c.377-.096.707-.191 1.085-.287a10.842 10.842 0 003.257-1.573c.425-2.05.708-4.148.802-6.341-.141.142-.236.285-.377.476l-.614.572z" fill="#fff"/><path d="M17.322 48.54c4.343 1.573 8.543 3.67 12.697 5.96 4.154 2.288 8.26 4.672 12.46 7.056 4.201 2.384 8.402 4.768 12.98 6.77 2.266 1.002 4.626 1.956 7.175 2.528 1.274.334 2.596.524 4.012.572.33.048.708 0 1.038 0 .378 0 .708 0 1.086-.095l1.085-.143c.378-.096.708-.191 1.086-.286 1.416-.43 2.832-1.145 3.918-2.146a40.8 40.8 0 00-.709-4.816l-.094.096-.566.476c-.095.096-.19.191-.283.239l-.284.19a3.831 3.831 0 01-.566.382l-.614.286c-.188.095-.424.143-.613.238-.19.096-.425.144-.661.191-.236.048-.425.096-.66.143-.898.143-1.842.096-2.833 0-.52-.047-.991-.143-1.51-.238-.52-.096-1.039-.19-1.558-.334-2.077-.524-4.248-1.335-6.325-2.241-4.2-1.86-8.401-4.1-12.602-6.39-4.2-2.288-8.401-4.624-12.744-6.77-4.342-2.193-8.826-4.196-13.593-5.626-1.746-.525-3.54-1.002-5.38-1.335a55.61 55.61 0 00-3.4 3.29c.284.047.614.095.897.143a39.537 39.537 0 016.561 1.86zM71.13 87.4c-.19.095-.425.142-.661.19-.236.048-.425.095-.66.143-.898.143-1.842.095-2.833 0-.52-.048-.991-.143-1.51-.238-.52-.096-1.039-.191-1.558-.334-2.077-.525-4.248-1.335-6.325-2.241-4.2-1.86-8.401-4.1-12.602-6.39-4.2-2.288-8.401-4.624-12.744-6.77-4.342-2.194-8.826-4.196-13.593-5.627-2.36-.715-4.814-1.335-7.316-1.62-2.502-.287-5.098-.287-7.646.19a17.22 17.22 0 00-3.068.858 38.975 38.975 0 00-.425 3.386c1.274-.525 2.643-.81 4.012-1.002 2.171-.238 4.39-.095 6.608.287 2.218.38 4.437 1.048 6.56 1.859 4.343 1.574 8.544 3.672 12.697 5.96 4.154 2.289 8.26 4.673 12.46 7.057 4.202 2.384 8.402 4.768 12.98 6.77 2.266 1.002 4.626 1.956 7.175 2.528 1.274.334 2.596.524 4.012.572.33.048.708 0 1.038 0 .378 0 .708 0 1.086-.096h.142a35.808 35.808 0 003.067-5.817l-.236.144c-.236.047-.472.095-.66.19zm-60.369-8.488c2.219.381 4.437 1.049 6.561 1.86 4.343 1.573 8.543 3.671 12.697 5.96 4.154 2.288 8.26 4.672 12.46 7.056 4.201 2.385 8.402 4.769 12.98 6.771a49.753 49.753 0 004.673 1.812 36.656 36.656 0 004.72-4.291 6.247 6.247 0 01-.897-.239c-2.076-.524-4.248-1.335-6.324-2.24-4.201-1.86-8.402-4.101-12.603-6.39-4.2-2.289-8.401-4.625-12.743-6.77-4.343-2.194-8.827-4.197-13.594-5.627-2.36-.715-4.814-1.335-7.316-1.621-2.596-.334-5.192-.334-7.74.143a21.354 21.354 0 00-3.399 1.001c.094 1.05.283 2.05.472 3.052 1.133-.382 2.266-.668 3.446-.81 2.17-.24 4.39-.096 6.607.333z" fill="#fff"/><path d="M37.335 26.987c-2.502 0-4.484-2.05-4.484-4.53 0-2.479 2.03-4.529 4.484-4.529s4.484 2.05 4.484 4.53c0 2.48-2.03 4.53-4.484 4.53zm0-7.772c-1.747 0-3.21 1.43-3.21 3.243 0 1.764 1.416 3.242 3.21 3.242 1.746 0 3.21-1.43 3.21-3.242 0-1.764-1.464-3.243-3.21-3.243z" fill="#EDDFE7"/><path d="M30.49 23.125v10.347c0 .572.473 1.049 1.04 1.049.566 0 1.038-.477 1.038-1.049v-.286c0-.43.283-.81.708-.906.519-.095.944.334.944.81v.334c0 .572.472 1.05 1.038 1.05h.472c.566 0 1.038-.477 1.038-1.05v-.286c0-.429.284-.81.708-.906.52-.095.944.334.944.81v.335c0 .572.472 1.049 1.039 1.049h.472c.566 0 1.038-.477 1.038-1.05v-.285c0-.43.283-.811.708-.906.52-.096.944.333.944.81v.334c0 .572.472 1.049 1.038 1.049.567 0 1.039-.477 1.039-1.049V23.125H30.49c.047 0 0 0 0 0z" fill="#EDDFE7"/><path d="M37.335 19.215V0" stroke="#fff" stroke-miterlimit="10"/><path d="M37.288 20.455c.86 0 1.557-.704 1.557-1.573 0-.87-.697-1.574-1.557-1.574s-1.558.705-1.558 1.574c0 .869.697 1.573 1.558 1.573z" fill="#fff"/><path d="M37.288 20.407c.85 0 1.557-.715 1.557-1.573 0-.238-.047-.43-.142-.62-.99.668-2.03.668-2.926.906.142.763.755 1.287 1.51 1.287z" fill="#BDC1F2"/></g><defs><clipPath id="clip0"><path fill="#fff" d="M0 0h75v110H0z"/></clipPath></defs></svg>