<svg xmlns="http://www.w3.org/2000/svg" width="400" height="355" fill="none"><g id="uhi" transform="translate(44.247 99.787)"><path d="M35.276 99.81c22.036-12.791 49.067 2.269 58.46 12.608 1.488 9.82 4.179 19.387 6.032 29.141.903 4.878 2.561 9.608 2.488 14.632l-8.088-.155c-.943-2.202-2.894-3.544-4.504-5.153-6.226-6.194-12.575-12.274-18.695-18.541a6.794 6.794 0 00-5.316-2.285c-10.283.082-20.566.065-30.848.082-2.52-2.439-5.203-4.691-7.536-7.275-4.064-4.52-3.942-10.438.228-14.957 2.471-2.772 5.154-5.365 7.779-8.096z" fill="#3920B1" transform="translate(-24.294 -99.787)"/><path d="M34.74 130.131c10.282 0 20.565 0 30.888-.082a6.794 6.794 0 015.316 2.284c6.154 6.268 12.502 12.348 18.696 18.542 1.626 1.625 3.56 2.95 4.503 5.153-9.006-.195-18.102 1.244-26.987-1.398-5.869-1.748-11.485-3.983-16.102-8.177a216.111 216.111 0 01-16.315-16.322z" fill="#ACCDFF" transform="translate(-24.294 -99.787)"/><g id="_a0"><path d="M260.235 112.426c4.224-5.618 18.508-10.578 30.237-13.106 7.771-1.667 19.706-2.759 28.232.467 2.617 2.698 5.299 5.332 7.852 8.128 4.178 4.528 4.324 10.429.227 14.957-2.341 2.585-5.015 4.877-7.543 7.275l-30.775-.057c-1.78 0-3.349.154-4.771 1.626-4.43 4.544-9.194 8.754-13.494 13.404-3.251 3.527-7.502 6.242-9.575 10.835l-8.852.236c.227-7.153 2.284-14.014 3.763-20.931 1.618-7.609 3.414-15.168 4.699-22.834z" fill="#3920B1" transform="translate(-24.293 -99.787)"/><path d="M260.625 155.923c2.073-4.593 6.308-7.316 9.575-10.836 4.3-4.649 9.064-8.86 13.494-13.404 1.422-1.455 2.991-1.626 4.771-1.626l30.775.057c-8.795 8.86-16.412 19.029-28.93 23.5-9.794 3.52-19.736 2.357-29.685 2.309z" fill="#ACCDFF" transform="translate(-24.293 -99.787)"/></g></g><g id="horn" transform="translate(258.72 17.97)"><path id="_a1" d="M256.577 120.187c-3.707-10.388-11.609-28.188-15.82-38.365-2.975-7.177-6.389-14.184-8.608-21.662l94.984-.09c1.374 0 2.764-.057 3.65 1.244 5.178 7.673 11.079 14.85 15.444 23.045-21.86 25.975-77.904 33.406-89.65 35.828z" fill="#D3EBF3" transform="translate(-238.767 -18.737)"/><path id="_a2" d="M346.251 84.359c-4.389-8.194-31.774-46.44-38.529-56.527-2.008-3-4.162-5.901-6.357-8.99 2.041-.455 27.792 14.778 39.018 21.793a28.78 28.78 0 017.933 41.821c-.585.756-1 1.7-2.065 1.903z" fill="#fff" transform="translate(-238.767 -18.737)"/></g><g id="horn_l"><path d="M121.839 60.16c-3.301 9.94-7.763 19.419-11.771 29.076-3.194 7.697-7.643 22.819-10.748 30.557-39.807-4.729-46.113-11.824-65.571-19.022-9.649-3.251-16.746-9.39-25.07-15.128a4.877 4.877 0 01-.95-1.284c4.364-8.21 10.323-15.355 15.444-23.045.878-1.317 2.276-1.244 3.65-1.244l95.016.09z" fill="#D3EBF3" transform="translate(19.953 -.766)"/><path d="M7.753 84.359c-10.34-9.243-10.316-27.825-.057-38.847 3.487-3.747 7.9-6.08 12.193-8.64 9.055-5.406 29.433-17.64 31.547-17.144C43.567 33.1 33.724 44.927 25.855 57.973 24.595 60.916 12.093 76.15 7.753 84.36z" fill="#fff" transform="translate(19.953 -.766)"/></g><path d="M271.726 156.191c-.049 4.064 1.739 7.811 2.438 11.754a57.905 57.905 0 010 21.467 4.235 4.235 0 00-3.877-.65c-4.162 1.374-8.511 1.333-12.762 1.992-7.73 1.203-15.444 2.349-23.191 3.527l.098-26.824c5.942 0 11.876.089 17.818.049 5.153 0 8.047-2.301 9.274-7.267.704-3.45.8-6.995.285-10.478-.439-4.064-4.341-5.332-7.454-2.617-1.829 1.585-3.56 3.3-5.332 4.958v-48.714c0-10.568-10.429-21.826-20.956-21.948-20.695-.2-41.396-.2-62.102 0-10.356.098-20.948 11.275-20.956 21.525 0 16.376-.013 32.75-.04 49.121-1.772-1.626-3.504-3.365-5.333-4.967-2.975-2.593-6.844-1.56-7.364 2.236-.52 3.796-.748 7.811.422 11.64 1.325 4.324 4.065 6.454 8.649 6.503 6.072.048 12.144 0 18.225-.049l.073 26.873c-11.722-1.715-23.451-3.406-35.173-5.162-1.625-.235-3.162-.813-4.657.293a58.107 58.107 0 011.544-27.719c.609-1.782.882-3.661.805-5.543.073-5.024-1.585-9.755-2.488-14.632-1.812-9.754-4.503-19.313-5.99-29.133 3.105-7.73 6.137-15.444 9.331-23.182 4.008-9.657 8.47-19.135 11.771-29.076.097-.243.162-.497.195-.756h123.912c.04.262.111.518.211.764 2.219 7.478 5.633 14.485 8.608 21.663 4.211 10.177 8.771 20.215 12.478 30.604-1.285 7.665-3.081 15.225-4.707 22.825-1.479 6.901-3.536 13.762-3.755 20.923z" fill="#ACCDFF"/><path id="sh_r" d="M220.763 253.496c-1.704-5.591-8.232-13.757-12.469-17.783.065-12.133-.065-24.739 0-36.866 0-1.74 5.079-2.956 6.071-4.558 7.73-1.178 15.444-2.324 23.191-3.527 4.251-.659 8.6-.618 12.762-1.992a4.25 4.25 0 013.877.65c0 .277-.073.553-.106.813a3.263 3.263 0 00-.658 2.439c-.894 5.974-3.577 11.258-6.503 16.395a6616.668 6616.668 0 01-23.118 39.83c-.385.566-3.047 4.599-3.047 4.599z" fill="#3920B1" transform="translate(19.953 .001)"/><path id="sh_l" d="M150.517 235.794c-4.219 4.044-15.334 16.101-17.047 21.688-9.828-16.257-21.753-39.392-30.336-56.324a21.232 21.232 0 01-2.553-8.454 3.25 3.25 0 00-.675-2.479c0-.268-.073-.536-.113-.813 1.495-1.138 3.056-.528 4.657-.292 11.722 1.755 36.451 3.446 48.173 5.161 0 12.134-3.268 39.944-2.106 41.513z" fill="#3920B1" transform="translate(19.953)"/><path d="M119.851 190.226a3.26 3.26 0 01.675 2.479 3.386 3.386 0 01-.675-2.479zm153.5 2.478a3.258 3.258 0 01.659-2.438 3.356 3.356 0 01-.659 2.438z" fill="#203C3F"/><path d="M160.469 235.794c-1.163-1.553-.813-3.365-.813-5.088-.049-12.145-.079-24.283-.089-36.417l-.074-26.864-14.631-15.364c0-16.37.013-32.744.041-49.121 0-10.25 10.567-21.427 20.955-21.524 20.695-.195 41.396-.195 62.102 0 10.56.106 21.005 11.372 21.005 21.939v48.715l-14.591 15.355-.098 26.824c-.991 1.626-.707 3.389-.723 5.129-.07 12.128-.136 24.258-.195 36.392-6.503-4.739-13.884-6.081-21.825-5.853-9.755.276-19.509.317-29.263 0-7.926-.252-15.25 1.171-21.801 5.877zm36.684-126.806c-6.503 0-13.006-.097-19.46 0a18.192 18.192 0 00-18.143 18.493c-.04 10.087 8.446 17.883 19.923 18.004 11.624.13 23.256.09 34.88 0 3.211 0 6.503-.341 9.446-1.837 7.665-3.869 11.941-12.192 10.169-19.744-2.155-9.234-8.877-14.794-18.176-14.9-6.194-.089-12.412-.032-18.639-.024v.008zm17.672 95.633c0-6.503-.098-13.006.04-19.509a15.65 15.65 0 00-2.389-8.453c-3.723-6.316-12.08-10.275-18.282-8.665-9.754 2.536-15.127 8.608-15.159 17.395-.041 13.135.065 26.271-.057 39.407 0 3.333 1.105 4.536 4.47 4.471a757.824 757.824 0 0127.223 0c3.251.057 4.259-1.252 4.194-4.333-.122-6.763-.04-13.542-.04-20.313z" fill="#D3EBF3"/><path d="M151.114 260.237v10.892c.333 7.535 4.609 12.193 12.087 13.575 1.032.146 66.437.153 67.467.008 7.462-1.349 11.714-6.056 12.039-13.607 0-2.268.057-10.86.057-10.86" fill="#3920B1"/><path d="M242.463 250.483c-1.704-5.591-4.598-10.911-8.835-14.937-6.503-4.739-14.146-6.044-22.088-5.816-9.754.276-20.067.317-29.822 0-7.974-.269-14.733 1.11-21.284 5.816-4.213 4.039-7.296 9.359-9.011 14.937-.268 3.138-.342 6.268-.325 9.405a6.891 6.891 0 000 .813h91.674s-.049-7.096-.309-10.218z" fill="#fff"/><path d="M197.154 108.972c6.227 0 12.445-.057 18.655 0 9.299.106 16.022 5.69 18.176 14.9 1.772 7.567-2.504 15.875-10.169 19.744-2.975 1.496-6.235 1.813-9.445 1.837-11.624.106-23.256.146-34.88 0-11.478-.138-19.964-7.917-19.923-18.005a18.196 18.196 0 015.2-13.03 18.211 18.211 0 015.916-4.023 18.176 18.176 0 017.01-1.431c6.487-.082 12.974.016 19.46.008z" fill="#BE1F86"/><path d="M214.826 204.622c0 6.771-.098 13.55.04 20.321.065 3.081-.943 4.39-4.194 4.333a799.51 799.51 0 00-27.223 0c-3.365.065-4.503-1.138-4.47-4.471.122-13.136 0-26.271.057-39.407 0-8.787 5.373-14.859 15.159-17.395 6.202-1.626 14.559 2.349 18.282 8.665a15.65 15.65 0 012.389 8.453c-.122 6.503-.04 13.006-.04 19.501z" fill="#ACCDFF"/><path d="M116.12 112.418l-6.974 11.364h6.974l6.048-9.974-6.048-1.39zm154.793-3.479l7.364 16.859 4.162-3.089-7.608-15.558-3.918 1.788z" fill="#D3EBF3"/><path d="M245.42 260.763l1.8 4.502" fill="#3920b1"/><g id="vr" transform="translate(88.958 103.461)"><path d="M274.679 126.838l-14.444-4.787s-4.577-9.047-6.121-12.575l-.772.455c1.471 3.975 2.95 7.95 4.592 12.372H94.932l3.406-7.503-.578-.447c-1.113 2.048-5.129 7.885-5.129 7.885s-8.226 3.373-12.388 3.991c3.959-5.902 8.82-13.567 12.738-18.42a10.474 10.474 0 016.999-3.552c9.299-.553 18.63-.609 27.946-.626 40.472-.081 80.936 0 121.408-.17 7.072 0 12.51 2.52 15.981 10.299 2.122 3.487 9.364 13.078 9.364 13.078z" fill="#0b0c47" transform="translate(-69.004 -103.462)"/><path d="M277.784 134.886c-.463-5.3-2.95-9.446-8.128-11.592a13.02 13.02 0 00-4.699-1.081l-7.429-.244c-13.429 0-157.459.09-166.782.301-8.479.195-13.006 4.227-13.819 12.478-.496 4.877-.341 9.876-.35 14.818a9116.18 9116.18 0 000 48.666c0 8.576 3.252 13.436 10.186 15.054 3.316.764 67.304 1.244 67.304 1.244h.041a10.05 10.05 0 008.047-4.105c1.78-2.341 3.813-4.512 5.772-6.714 5.779-6.503 12.534-6.593 18.362-.212 2.048 2.244 4.243 4.398 6.113 6.788 2.52 3.21 5.747 4.283 9.754 4.267 19.216-.081 38.424 0 57.64 0 13.266 0 17.996-4.641 18.037-17.769.049-17.68 0-35.368 0-53.055.016-2.984.22-5.934-.049-8.844z" fill="#0f0f75" transform="translate(-69.005 -103.461)"/><g filter="none"><path d="M266.916 143.73c-.414-4.666-2.601-8.324-7.145-10.21a11.38 11.38 0 00-4.137-.959l-6.544-.211c-11.835 0-141.169.073-149.387.268-7.47.171-11.453 3.723-12.193 10.99-.439 4.316-.3 8.705-.309 13.054-.04 14.298-.056 20.46 0 34.75 0 7.551 2.845 11.835 8.942 13.258 2.926.683 56.859 1.105 56.859 1.105a8.83 8.83 0 007.088-3.617c1.577-2.065 3.366-3.975 5.089-5.918 5.097-5.747 18.354-5.812 23.492-.187 1.812 1.984 3.739 3.878 5.389 5.983 2.219 2.829 5.064 3.772 8.592 3.755 16.932-.065 31.417 0 48.349 0 11.689 0 15.858-4.064 15.891-15.655.041-15.583 0-23.037 0-38.611.073-2.65.252-5.235.024-7.795z" fill="#000021" transform="translate(-69.004 -103.461)"/></g><g id="glasses" data-name="Layer 1"><path class="cls-1" d="M168.28 90.27l-2.85-1.63-2.85 1.63z" fill="#0d0d59" transform="matrix(.81 0 0 .81 18.322 28.948)"/><path class="cls-1" d="M159.3 90.27L165 87l.4-.22.4.22 5.72 3.26h5.93l-12-6.9-12.05 6.9zM12.71 81.59l.38.22 13.71 7.8h2.27l13.8-7.85.38-.22.38.22L58.2 90.1h.63l14.58-8.3.38-.22.39.22 12.29 7a10.52 10.52 0 002.5-2l-.29-.17-14.88-8.52-14.89 8.54-.39.23-.39-.23-14.88-8.53-14.88 8.53-.39.22-.39-.22-14.88-8.54-9.88 5.66A12 12 0 004.89 86l7.43-4.23z" fill="#0d0d59" transform="matrix(.81 0 0 .81 18.322 28.948)"/><path class="cls-1" d="M2 82.45l10.29-5.86.38-.22.37.22L28 85.07l14.89-8.49.38-.21.38.21 14.89 8.48 14.9-8.47.38-.22.37.22 14.9 8.48 2.48-1.41c1.46-1.73 3-3.41 4.5-5.1 2.25-2.54 5.8-4.17 9.72-4.91l-1.43-.82-14.9 8.56-.37.22-.38-.22-14.9-8.55-14.91 8.55-.38.21-.37-.21-14.9-8.56-14.9 8.56-.35.21-.38-.21-14.91-8.55L.92 79.6c.263.984.625 1.939 1.08 2.85zm187.82 7.84l5.75-3.29.4-.23.4.23 5.74 3.26c1.762 0 3.523-.117 5.27-.35L196 83.38l-12.06 6.9z" fill="#0d0d59" transform="matrix(.81 0 0 .81 18.322 28.948)"/><path class="cls-1" d="M198.84 90.29L196 88.65l-2.87 1.64zm-153.32-.35l-2.27-1.3-2.15 1.23zm-32.81-3.16l.4.23 4.11 2.34c1.79.07 3.9.13 6.24.19l-10.75-6.18-6.43 3.69a14.139 14.139 0 003.31 1.51L12.31 87z" fill="#0d0d59" transform="matrix(.81 0 0 .81 18.322 28.948)"/><path class="cls-1" d="M37.92 89.82L42.85 87l.4-.22.4.22 5.21 3 6.07.08-11.68-6.71-11.08 6.35zm29.86.39L73.39 87l.4-.23.41.23 5.8 3.32h1a13.002 13.002 0 003.64-.66l-10.85-6.29L62 90.14zM.55 78.09l11.8-6.72.36-.2.36.2L28 79.86l14.91-8.48.36-.2.36.2 14.91 8.48 14.92-8.49.35-.2.36.2 14.92 8.48L104 71.38l.36-.2.36.2 3.42 1.94a27.061 27.061 0 016.55.18l-10.33-5.93-14.93 8.56-.36.2-.36-.2-14.92-8.56-14.91 8.56-.36.2-.36-.2-14.91-8.56-14.91 8.56-.36.2-.36-.2-14.91-8.56L.12 74.79c.07 1.108.214 2.21.43 3.3zM84.9.1h-8.12l12.29 7 12.35-7h-8.16L89.2 2.42l-.13.08-.14-.08zm46.68 85.59a12.071 12.071 0 001.86 1.91l1-.59.4-.23.4.23 5.76 3.27h6l-12.07-6.92-3.54 2zM24.08.25l-8 .06L28 7.07 40.12.19h-8.18l-3.83 2.2-.11.11-.13-.08zm30.37-.1h-8.1l12.17 6.9L70.79.12h-8.16l-4 2.29-.14.07-.13-.07zM145.86 0h-8.13l12.42 7 12.47-7h-8.16l-4.17 2.4-.14.08-.15-.06zm-30.49.06h-8.12l12.36 7L132 0h-8.15l-4.13 2.37-.13.08-.13-.08zM12.71 88.64l-.78.44 1.75.12z" fill="#0d0d59" transform="matrix(.81 0 0 .81 18.322 28.948)"/><path class="cls-1" d="M15.07.34a18.1 18.1 0 00-8.15 2l-.12.07a12.23 12.23 0 00-5.7 7.8l11.46-6.5.15-.08.14.08L28 12.26l15.11-8.58.14-.08.14.08 15.13 8.58 15.13-8.58.14-.08.15.08 15.13 8.58 15.13-8.58.14-.08.14.08 15.13 8.58 15.13-8.58.14-.08.15.08 15.12 8.58 15.13-8.58.15-.08.14.08 15.13 8.58 15.13-8.58.17-.08.14.08 15.13 8.58 8.12-4.6A12.73 12.73 0 00217 4.47l-5.6 3.22-.16.09-.15-.09L197.74 0h-3.54l-13.35 7.69-.15.09-.15-.09L167.22 0h-3.59l-13.32 7.69-.16.09-.15-.09L136.71 0h-3.66l-13.29 7.69-.15.09-.15-.09L106.22.07h-3.78L89.22 7.69l-.15.09-.15-.09L75.76.11h-4L58.67 7.69l-.15.09-.15-.09L45.33.18h-4.18l-13 7.5-.15.1-.15-.09z" fill="#0d0d59" transform="matrix(.81 0 0 .81 18.322 28.948)"/><path class="cls-1" d="M207.38.27h-.13L199.19 0h-.42l12.47 7.07 5.32-3a14.568 14.568 0 00-3.8-2.43l-1.38.79-.14.08-.13-.08zM176.37 0h-8.14l12.47 7.07L193.18 0H185l-4.21 2.42-.13.08-.14-.08zM76.66 90.29l-2.87-1.64L71 90.24zm134.81-61.52l-.23.13-.23-.13-15-8.66-15 8.66-.23.13-.23-.13-15-8.66-15.05 8.66-.23.13-.22-.13L135 20.11l-15 8.66-.23.13-.23-.13-15-8.66-7.43 4.26-7.61 4.4-.23.13-.23-.13-15-8.66-15 8.66-.23.13-.23-.13-3.8-2.2-3.82-2.19-7.42-4.27-15 8.66-.54.13-.23-.13-15-8.66L0 27.4v4.17l12.45-7.08.22-.12.22.12L28 33.05l15-8.55.22-.12.22.12 15.05 8.55 15-8.56.22-.12.23.12 15 8.56 15.05-8.55.22-.12.22.12 15 8.54 15-8.55.22-.12.22.12 15.05 8.56 15.06-8.56.22-.12.22.12 15 8.55 15.05-8.55.22-.12.22.12 15.05 8.56 9.94-5.65v-4.23z" fill="#0d0d59" transform="matrix(.81 0 0 .81 18.322 28.948)"/><path class="cls-1" d="M211.24 1.88l.91-.51a14.91 14.91 0 00-3.56-1zm0 21.74l-.24-.12-15-8.67-15.09 8.67-.21.12-.21-.12-15.06-8.67-15.07 8.67-.21.12-.2-.12-15.07-8.67-15.06 8.67-.21.12-.21-.12-15.06-8.67-15.07 8.67-.2.11-.21-.11c-2.55-1.45-5.08-2.93-7.62-4.39l-7.45-4.28-15.06 8.67-.21.11-.2-.11-15.07-8.67-15.06 8.67-.21.12-.21-.12-15.06-8.67L0 22.12v4.25l12.48-7.08.2-.11.2.11L28 27.84l15.07-8.55.2-.11.2.11 7.65 4.34 3.82 2.17 3.6 2 15.07-8.55.2-.11.2.11 15.08 8.55 7.42-4.2 7.65-4.35.2-.11.2.11 15.07 8.55 15.07-8.55.2-.11.2.11 15.07 8.55 15.08-8.55.2-.11.2.11 15.07 8.55 15.07-8.55.2-.11.2.11 15.07 8.55 10-5.65c0-1.44.05-2.89.06-4.34l-9.81 5.65z" fill="#0d0d59" transform="matrix(.81 0 0 .81 18.322 28.948)"/><path class="cls-1" d="M211.24 18.34l-.19-.11L196 9.55l-15.08 8.68-.19.11-.19-.11-15.11-8.68-15.08 8.68-.2.11-.19-.11-15.08-8.68-15.08 8.68-.19.11-.19-.11-15.08-8.68-15.08 8.68-.19.11-.19-.11-15.09-8.68-15.08 8.68-.19.11-.19-.11-15.08-8.68-15.08 8.68-.19.11-.19-.11-15.08-8.68L.2 16.75c-.08 1.47-.13 2.94-.15 4.42l12.47-7.08.19-.1.18.1L28 22.65l15.09-8.56.18-.1.18.1 15.09 8.56 15.09-8.56.18-.1.19.1 7.64 4.34c2.48 1.41 5 2.8 7.45 4.22l15.09-8.56.18-.1.18.1 15.09 8.56 15.09-8.56.18-.1.18.1 15.09 8.56 15.1-8.56.18-.1.18.1 15.09 8.56 15.09-8.56.19-.09.18.1 15.09 8.56 10-5.68c0-1 0-2-.13-3 0-.43-.1-.85-.16-1.26l-9.54 5.49zM180.7 1.88L184 0h-6.62z" fill="#0d0d59" transform="matrix(.81 0 0 .81 18.322 28.948)"/><path class="cls-1" d="M211.24 13.06l-.17-.1L196 4.27 180.87 13l-.17.1-.17-.1-15.1-8.69-15.1 8.69-.18.1-.15-.1-15.1-8.69L119.78 13l-.17.1-.17-.1-15.1-8.69L89.24 13l-.17.1-.18-.1-15.1-8.73L58.7 13l-.18.1-.17-.1-15.1-8.73L28.15 13l-.17.1-.17-.1-15.1-8.73L.87 11.08a25.002 25.002 0 00-.45 2.77c-.07.67-.12 1.34-.17 2l12.29-7 .17-.09.16.09L28 17.45l15.09-8.57.16-.09.16.09 15.11 8.57 15.11-8.57.16-.09.17.09 15.11 8.57 15.1-8.57.17-.09.16.09 15.11 8.58 15.11-8.58.16-.09.17.09 15.1 8.58 15.11-8.57.17-.1.16.1 15.11 8.57 15.11-8.58.16-.09.16.09 15.11 8.57 9.61-5.45a16.087 16.087 0 00-1.21-3.78L211.42 13zM150.15 1.88L153.43 0h-6.55zm-91.63 0L61.59.14h-6.11zM28 1.88L30.91.22 25.1.25zm61.07 0L92.23.09h-6.31zm30.54 0l3.23-1.83h-6.45zm91.63 85l-.39-.23L196 78.11l-14.88 8.54-.39.22-.39-.22-14.88-8.54-14.89 8.54-.39.22-.38-.22-14.89-8.53-6.59 3.78c.69.75 1.37 1.5 2 2.27l4.17-2.38.39-.22.39.22 14.88 8.49L165 81.8l.39-.23.39.23 14.87 8.48 14.88-8.49.39-.22.39.22 13.49 7.69c4.69-1.1 7.72-3.38 9.45-7.22l-7.67 4.39zm0-21.08l-.33-.19L196 57l-15 8.61-.33.19-.34-.19-14.9-8.61-14.94 8.58-.34.19-.33-.19L134.88 57l-14.94 8.58-.33.19-.33-.19L104.34 57 89.4 65.6l-.33.19-.33-.19L73.79 57l-14.94 8.6-.33.19-.33-.19L43.25 57l-7.31 4.2-7.63 4.4-.33.19-.33-.19L12.71 57 0 64.33V68l12.36-7 .33-.19.31.19 15 8.48L42.92 61l.33-.18.33.18 14.94 8.48L73.47 61l.32-.18.33.18 14.95 8.48L104 61l.33-.19.33.19c5 2.84 10 5.65 14.94 8.5l15-8.5.32-.18.33.18 14.94 8.5L165.1 61l.33-.18.32.18c5 2.84 10 5.64 14.95 8.5l14.94-8.5.33-.19.33.19 14.94 8.49 7.3-4.15 2.65-1.5v-3.72l-9.62 5.53z" fill="#0d0d59" transform="matrix(.81 0 0 .81 18.322 28.948)"/><path class="cls-1" d="M211.59 70.87l-.35.19-.34-.19-14.9-8.58-15 8.57-.34.2-.35-.2c-5-2.83-9.95-5.72-14.92-8.57l-14.89 8.57-.35.2-.34-.2-14.93-8.57L120 70.86l-.35.2-.34-.2c-5-2.83-10-5.72-14.93-8.57l-14.96 8.58-.35.2-.35-.2-14.93-8.58-14.92 8.58-.35.21-.35-.21-14.92-8.58-14.92 8.58-.35.2-.35-.2-14.92-8.58L0 69.58v3.59l12.31-7 .35-.19.34.19 15 8.49 14.92-8.5.35-.2.35.2 14.92 8.5 14.93-8.5.34-.19.35.19 14.93 8.5 14.91-8.5.35-.19.34.19 14.93 8.5 14.93-8.5.34-.2.35.2 14.92 8.5 14.93-8.5.35-.19.34.19 14.93 8.5 14.93-8.5.36-.16.35.19 14.92 8.5 9.91-5.69v-3.64l-2 1.13zm-.35-36.7L211 34l-15-8.64L181 34l-.24.14-.25-.14-15-8.64L150.4 34l-.25.14-.24-.14-15-8.64-15 8.64-.24.14-.24-.14-15-8.65L89.31 34l-.24.13-.24-.13-15-8.64L58.76 34l-.24.14-.24-.14-15-8.65L28.22 34l-.24.14-.24-.14-15-8.64L0 32.67v4.11l12.44-7.07.24-.14.23.14 15 8.53 15-8.53.23-.13.23.13 15 8.54 15-8.54.23-.13.24.13 15 8.53 15-8.53.24-.14.23.14 15 8.54 15-8.54.23-.13.23.13 15 8.54 15-8.54.24-.13.23.13 15 8.54 15-8.54.23-.13.23.13 15 8.54 9.95-5.65v-4.15L211.48 34z" fill="#0d0d59" transform="matrix(.81 0 0 .81 18.322 28.948)"/><path class="cls-1" d="M211.24 81.6l-.37-.21L196 72.84l-14.9 8.55-.37.21-.38-.21-14.89-8.56-14.9 8.56-.38.21-.37-.21-14.9-8.55-9.8 5.63c.7.76 1.41 1.52 2.12 2.27l7.31-4.16.37-.21.38.21 14.89 8.49 14.9-8.48.38-.21.37.21 14.9 8.48 14.89-8.49.38-.21.38.21 14.89 8.48 8.86-5.06a25.13 25.13 0 00.76-3.93l-9.27 5.32zm0-21.06l-.32-.19-14.92-8.6-15 8.6-.32.18-.32-.18-14.95-8.59-15 8.59-.33.18-.32-.18-15-8.6-7.2 4.25c-2.54 1.47-5.08 2.95-7.63 4.39l-.32.18-.32-.18-15-8.6-15 8.6-.32.19-.33-.19-14.95-8.6-14.94 8.6-.33.19-.32-.19-15-8.6-14.8 8.56-.32.18-.32-.18-14.95-8.59L0 59.06v3.72l12.38-7 .32-.18.31.18 15 8.51 7.31-4.17 7.65-4.34.31-.18.31.18 15 8.5 15-8.5.31-.18.32.18 15 8.5 15-8.51.32-.17.31.17 15 8.51 15-8.51.31-.18.32.18 15 8.51 15-8.51.32-.18.31.18 15 8.51 15-8.51.32-.18.32.18 15 8.51 10-5.67v-3.8l-9.63 5.54z" fill="#0d0d59" transform="matrix(.81 0 0 .81 18.322 28.948)"/><path class="cls-1" d="M211.24 76.33l-.36-.2L196 67.57l-14.91 8.56-.36.2-.36-.2-14.91-8.56-14.91 8.56-.37.2-.36-.2-14.91-8.56-13.79 7.91a14.423 14.423 0 012.87 1.9l10.56-6 .36-.2.36.2 14.91 8.49 14.92-8.48.36-.2.35.2 14.92 8.48 14.91-8.49.36-.2.36.2 14.91 8.49 9.81-5.58c.07-1 .12-2.1.12-3.25v-.39l-9.57 5.49zm0-21.07l-.3-.18-15-8.6-15 8.6-.3.18-.31-.18-15-8.6-15 8.6-.31.18-.3-.18-15-8.6-15 8.6-.31.18-.3-.18-15-8.6-15 8.6-.3.18-.31-.18-15-8.6-15 8.6-.31.18-.3-.18-15-8.6-15 8.6-.3.18-.31-.18-15-8.6L0 53.79v3.79l12.41-7 .3-.17.3.17L28 59l15-8.5.3-.17.3.17 15 8.5 15-8.5.29-.17.3.17 15 8.5 15-8.5.3-.17.3.17 15 8.5c2.43-1.4 4.88-2.78 7.33-4.16l7.64-4.34.3-.17.3.17 15 8.5 15-8.5.3-.17.3.17 15 8.5 15-8.5.3-.17.3.17 15 8.5 10-5.66v-3.81l-9.65 5.55z" fill="#0d0d59" transform="matrix(.81 0 0 .81 18.322 28.948)"/><path class="cls-1" d="M211.24 44.72l-.27-.16-15-8.62-15 8.62-.27.16-.28-.16-15-8.62-15 8.62-.28.16-.27-.16-15-8.62-15 8.62-.28.16-.28-.16-15-8.63-15 8.63-.27.16-.28-.16-15-8.63-15 8.63-.28.16-.27-.16-15-8.63-15 8.63-.28.16-.28-.16-15-8.63L0 43.24v3.94l4.79-2.72 7.65-4.34.27-.16.27.16 15 8.53c2.44-1.41 4.9-2.8 7.35-4.19L43 40.12l.27-.16.27.16 15 8.52 15-8.52.26-.16.27.16 15 8.53c2.44-1.41 4.9-2.79 7.35-4.19l7.65-4.34.27-.16.27.16 15 8.53 15-8.53.27-.16.27.16 15 8.52 15-8.52.27-.16.27.16 15 8.53 7.36-4.19c2.54-1.45 5.1-2.88 7.64-4.35L196 40l.27.15 15 8.53 10-5.66v-4l-9.67 5.56z" fill="#0d0d59" transform="matrix(.81 0 0 .81 18.322 28.948)"/><path class="cls-1" d="M211.24 39.44l-.25-.15-15-8.63-15 8.63-.26.15-.26-.15-15-8.64-15 8.64-.26.15-.25-.15-15-8.64-15 8.64-.26.15-.26-.15-15-8.63-15 8.64-.26.15-.26-.15-15-8.64-15 8.63-.26.15-.25-.15-15-8.63-15 8.64-.26.15-.26-.15-15-8.64L0 38v4l12.45-7.06.25-.14.25.14 15 8.53 15-8.53.25-.14.25.14 15 8.52 15-8.52.25-.14.25.14 15 8.53 15-8.53.25-.14.25.14 15 8.53 15-8.53.25-.14.26.14 15 8.53 15-8.53.26-.14.25.14 15 8.53 15-8.53.25-.15.25.15 15 8.53 9.95-5.65v-4.1l-9.69 5.57z" fill="#0d0d59" transform="matrix(.81 0 0 .81 18.322 28.948)"/><path class="cls-1" d="M211.24 50l-.29-.17-15-8.61c-2.46 1.4-4.9 2.82-7.36 4.23L181 49.82l-.29.16-.29-.16-15-8.61-15 8.61-.29.17-.28-.17-15-8.61-15 8.61-.29.16-.29-.16-15-8.61L97 45.44c-2.54 1.46-5.07 2.94-7.63 4.38l-.29.16-.28-.16-15-8.61-15 8.61-.29.17-.29-.17-15-8.61-7.32 4.23c-2.55 1.46-5.08 2.93-7.63 4.38L28 50l-.29-.16-15-8.61-7.36 4.21L0 48.51v3.87l12.42-7.05.29-.16.28.16 15 8.51 15-8.51.28-.16.28.16 15 8.51 15-8.51.28-.17.29.17 15 8.51 15-8.51.29-.17.28.17 15 8.51 15-8.51.28-.16.29.16 15 8.51 15-8.51.29-.17.28.17 15 8.51 15-8.51.28-.17.29.17 15 8.51 10-5.65v-3.92l-9.67 5.55z" fill="#0d0d59" transform="matrix(.81 0 0 .81 18.322 28.948)"/></g><path d="M277.459 141.275c4.877.146 7.617 2.357 7.714 6.641.203 8.697.927 17.501-.171 26.068-.812 6.397-3.917 13.819-7.543 18.363-.398-.122.398.114 0 0v-51.072z" fill="#111165" transform="translate(-69.005 -103.461)"/><path d="M204.334 132.634h33.393l-88.098 72.857h-36.367l91.072-72.857zm-15.436 0h11.128l-92.275 72.857H96.167l92.731-72.857z" fill="#3920B1" transform="translate(-69.005 -103.461)"/><path d="M77.146 141.275c-4.877.146-7.624 2.357-7.722 6.641-.195 8.697-.926 17.501.171 26.068.813 6.397 3.926 13.819 7.551 18.363.39-.122-.398.114 0 0v-51.072z" fill="#111165" transform="translate(-69.005 -103.461)"/><path d="M214.178 129.131h-74.393a3.219 3.219 0 100 6.438h74.393a3.22 3.22 0 000-6.438z" fill="#ACCDFF" transform="translate(-69.005 -103.461)"/></g><path id="mouth" d="M139.248 277.704c1.032.146 8.403 9.55 8.877 10.479 2.983 4.966 7.072 8.941 13.42 9.291h30.889c6.349-.358 10.421-4.325 13.404-9.299.477-.926 7.847-10.318 8.877-10.463z" fill="#3920B1" transform="translate(19.007 -.411)"/><path id="ring" d="M177.583 295.377a25.692 25.692 0 01-23.476-36.088 25.685 25.685 0 0111.365-12.245l4.064 7.543a17.13 17.13 0 00-8.526 19.339 17.124 17.124 0 0016.745 12.894 17.126 17.126 0 007.656-32.371l3.91-7.616a25.684 25.684 0 014.174 43.037 25.692 25.692 0 01-15.887 5.507h-.025z" fill="#ACCDFF" transform="translate(19.953)"/><script><![CDATA[/*
 KeyshapeJS v1.1.0 (c) 2018-2019 Pixofield Ltd | pixofield.com/keyshapejs/mit-license */
window.KeyshapeJS=function(){function t(a){return"undefined"!==typeof a}function x(a,b){return a&&0==a.indexOf(b)}function H(a){if(!isFinite(a))throw Error("Non-finite value");}function R(a){if(14>=a)return 16;var b=S[a];b||(b=t(ca[a])?0|(a.toLowerCase().indexOf("color")==a.length-5?48:0):1);return b}function K(a){return 0<=a?Math.pow(a,1/3):-Math.pow(-a,1/3)}function da(a,b,c,d){if(0==a)return 0==b?b=-d/c:(a=Math.sqrt(c*c-4*b*d),d=(-c+a)/(2*b),0<=d&&1>=d?b=d:(d=(-c-a)/(2*b),b=0<=d&&1>=d?d:0)),b;
var e=c/a-b*b/(a*a)/3;c=b*b*b/(a*a*a)/13.5-b*c/(a*a)/3+d/a;var n=c*c/4+e*e*e/27;b=-b/(3*a);if(0>=n){if(0==e&&0==c)return-K(d/a);a=Math.sqrt(c*c/4-n);d=Math.acos(-c/2/a);c=Math.cos(d/3);d=Math.sqrt(3)*Math.sin(d/3);a=K(a);e=2*a*c+b;if(0<=e&&1>=e)return e;e=-a*(c+d)+b;if(0<=e&&1>=e)return e;e=a*(d-c)+b;if(0<=e&&1>=e)return e}else{a=K(-c/2+Math.sqrt(n));c=K(-c/2-Math.sqrt(n));d=a+c+b;if(0<=d&&1>=d)return d;d=-(a+c)/2+b;if(0<=d&&1>=d)return d}return 0}function ea(a,b){if(48==a&&"number"===typeof b)return"rgba("+
(b>>>24)+","+(b>>>16&255)+","+(b>>>8&255)+","+(b&255)/255+")";if(64==a)return b=b.map(function(a){return a+"px"}),b.join(",");if(96==a){a="";for(var c=b.length,d=0;d<c;d+=2)a+=b[d],a+=b[d+1].join(",");return a}if(80==a){if(0==b[0])return"none";a="";c=b.length;for(d=0;d<c;)a+=T[b[d]],1==b[d]?a+="("+b[d+1]+") ":5==b[d]?(a+="("+b[d+1]+"px "+b[d+2]+"px "+b[d+3]+"px rgba("+(b[d+4]>>>24)+","+(b[d+4]>>16&255)+","+(b[d+4]>>8&255)+","+(b[d+4]&255)/255+")) ",d+=3):a=2==b[d]?a+("("+b[d+1]+"px) "):7==b[d]?a+
("("+b[d+1]+"deg) "):a+("("+(0>b[d+1]?0:b[d+1])+") "),d+=2;return a}return 32==a?b+"px":b}function y(a){return 0>=a?0:255<=a?255:a}function fa(a,b,c,d){if(16==a||32==a)return(c-b)*d+b;if(0==a)return.5>d?b:c;if(48==a){if("number"===typeof b&&"number"===typeof c){var e=1-d;return(y(e*(b>>>24)+d*(c>>>24))<<24|y(e*(b>>>16&255)+d*(c>>>16&255))<<16|y(e*(b>>>8&255)+d*(c>>>8&255))<<8|y(e*(b&255)+d*(c&255)))>>>0}return.5>d?b:c}if(64==a){0==b.length&&(b=[0]);0==c.length&&(c=[0]);var n=b.length;b.length!=c.length&&
(n=b.length*c.length);var l=[];for(a=0;a<n;++a){var f=b[a%b.length];var h=(c[a%c.length]-f)*d+f;0>h&&(h=0);l.push(h)}return l}if(96==a){if(b.length!=c.length)return.5>d?b:c;n=b.length;l=[];for(a=0;a<n;a+=2){if(b[a]!==c[a])return.5>d?b:c;l[a]=b[a];l[a+1]=[];for(f=0;f<b[a+1].length;++f)l[a+1].push((c[a+1][f]-b[a+1][f])*d+b[a+1][f])}return l}if(80==a){n=b.length;if(n!=c.length)return.5>d?b:c;l=[];for(a=0;a<n;){if(b[a]!=c[a]||1==b[a])return.5>d?b:c;l[a]=b[a];l[a+1]=(c[a+1]-b[a+1])*d+b[a+1];if(5==b[a]){l[a+
2]=(c[a+2]-b[a+2])*d+b[a+2];l[a+3]=(c[a+3]-b[a+3])*d+b[a+3];e=1-d;var g=b[a+4],q=c[a+4];h=e*(g>>>24)+d*(q>>>24);var m=e*(g>>16&255)+d*(q>>16&255);f=e*(g>>8&255)+d*(q>>8&255);e=e*(g&255)+d*(q&255);l[a+4]=(y(m)<<16|y(f)<<8|y(e))+16777216*(y(h)|0);a+=3}a+=2}return l}return 0}function U(a,b){a:{var c=a+b[2];var d=b[4].length;for(var e=0;e<d;++e)if(c<b[4][e]){c=e;break a}c=d-1}d=b[2];e=b[4][c-1]-d;a=(a-e)/(b[4][c]-d-e);if(b[6]&&b[6].length>c-1)if(d=b[6][c-1],1==d[0])if(0>=a)a=0;else if(1<=a)a=1;else{e=
d[1];var n=d[3];a=da(3*e-3*n+1,-6*e+3*n,3*e,-a);a=3*a*(1-a)*(1-a)*d[2]+3*a*a*(1-a)*d[4]+a*a*a}else 2==d[0]?(d=d[1],a=Math.ceil(a*d)/d):3==d[0]&&(d=d[1],a=Math.floor(a*d)/d);return fa(b[1]&240,b[5][c-1],b[5][c],a)}function L(){u||(v=(new Date).getTime()+V)}function O(a){if(a||!E){for(var b=!1,c=0;c<w.length;++c)w[c].J(a)&&(b=!0);if(a)for(;0<I.length;)if(a=I.shift(),c=a[0],1==a[1])c.onfinish&&(c.onfinish(),b=!0),c.I();else if(2==a[1]&&c.onloop)c.onloop();return b}}function W(){L();O(!0)&&!u?(E=!0,M(W)):
E=!1}function N(){E||(E=!0,M(W))}function X(a,b){var c=[];a.split(b).forEach(function(a){c.push(parseFloat(a))});return c}function A(a){-1==a.indexOf(",")&&(a=a.replace(" ",","));return X(a,",")}function Y(a){a._ks||(a._ks={});if(!a._ks.transform){for(var b=a._ks.transform=[],c=0;14>=c;++c)b[c]=0;b[10]=1;b[11]=1;if(a=a.getAttribute("transform")){a=a.trim().split(") ");for(c=a.length-2;0<=c;--c)if(x(a[c],"translate(")){for(var d=0;d<c;d++)a.shift();break}c=a.shift();x(c,"translate(")&&(c=A(c.substring(10)),
b[1]=c[0],b[2]=t(c[1])?c[1]:0,c=a.shift());x(c,"rotate(")&&(c=A(c.substring(7)),b[6]=c[0],c=a.shift());x(c,"skewX(")&&(c=A(c.substring(6)),b[7]=c[0],c=a.shift());x(c,"skewY(")&&(c=A(c.substring(6)),b[8]=c[0],c=a.shift());x(c,"scale(")&&(c=A(c.substring(6)),b[10]=c[0],b[11]=t(c[1])?c[1]:c[0],c=a.shift());x(c,"translate(")&&(c=A(c.substring(10)),b[13]=c[0],b[14]=t(c[1])?c[1]:0)}}}function Z(a){this.l=a;this.A=[];this.C=[];this.v=0;this.s=this.a=this.c=null;this.h=this.f=this.g=0;this.b=1;this.i=this.F=
this.o=!1}function J(a,b,c){b=a[b];void 0===b&&(b=a[c]);return b}function ha(a){return Array.isArray(a)?a:x(a,"cubic-bezier(")?(a=a.substring(13,a.length-1).split(","),[1,parseFloat(a[0]),parseFloat(a[1]),parseFloat(a[2]),parseFloat(a[3])]):x(a,"steps(")?(a=a.substring(6,a.length-1).split(","),[a[1]&&"start"==a[1].trim()?2:3,parseFloat(a[0])]):[0]}function ia(a){a=a.trim();return x(a,"#")?(parseInt(a.substring(1),16)<<8)+255:x(a,"rgba(")?(a=a.substring(5,a.length-1),a=a.split(","),(parseInt(a[0],
10)<<24)+(parseInt(a[1],10)<<16)+(parseInt(a[2],10)<<8)+255*parseFloat(a[3])<<0):a}function aa(a){!1===a.i&&(w.push(a),a.i=!0,!1!==a.l.autoplay&&a.play());return this}function P(a){if(!0===a.i){a._cancel();var b=w.indexOf(a);-1<b&&w.splice(b,1);b=I.indexOf(a);-1<b&&I.splice(b,1);a.i=!1}return this}var Q=Error("Not in timeline list"),ba="mpath posX posY    rotate skewX skewY  scaleX scaleY  anchorX anchorY".split(" "),ja=" translate translate    rotate skewX skewY  scale scale  translate translate".split(" "),
T="none url blur brightness contrast drop-shadow grayscale hue-rotate invert opacity saturate sepia".split(" "),M=window.requestAnimationFrame||window.webkitRequestAnimationFrame||window.mozRequestAnimationFrame||window.oRequestAnimationFrame||window.msRequestAnimationFrame||null;M||(M=function(a){window.setTimeout(a,16)});var S={d:97,fill:48,fillOpacity:16,filter:80,height:33,opacity:16,offsetDistance:33,stroke:48,strokeDasharray:64,strokeDashoffset:32,strokeOpacity:16,strokeWidth:32,transform:1,
width:33},ca=window.getComputedStyle(document.documentElement),E=!1,v=(new Date).getTime(),u,V=0,w=[],I=[];Z.prototype={B:function(a){var b=0;if(null!==this.c){var c=this.j();0<this.b&&null!==c&&c>=this.f?this.h?(this.c=v-this.g/this.b,this.h--,b=2):(b=1,a?this.a=c:this.a=this.s?Math.max(this.s,this.f):this.f):0>this.b&&null!==c&&c<=this.g?this.h&&Infinity!=this.f?(this.c=v-this.f/this.b,this.h--,b=2):(this.h=0,b=1,a?this.a=c:this.a=this.s?Math.min(this.s,this.g):this.g):null!==c&&0!=this.b&&(a&&
null!==this.a&&(this.c=v-this.a/this.b),this.a=null)}this.s=this.j();return b},J:function(a){a&&(this.o&&(this.o=!1,null===this.c&&(0!=this.b&&null!==this.a?(this.c=v-this.a/this.b,this.a=null):this.c=v)),null===this.a&&null!==this.c&&(a=this.B(!1),0!=a&&I.push([this,a])));a=this.j();if(null===a)return!1;for(var b=this.A,c=this.C,d=0;d<b.length;++d){for(var e=b[d],n=!1,l=0;l<c[d].length;++l){var f=c[d][l],h=f[0];if(null!==h){var g=f[2];var q=f[4].length,m=f[4][q-1]-g;g=0==m?f[5][q-1]:a<=g?f[5][0]:
a>=g+f[3]?0==f[3]%m?f[5][q-1]:U(f[3]%m,f):U((a-g)%m,f);0==h?(e._ks.mpath=f[8],e._ks.transform[h]=g,n=!0):14>=h?(e._ks.transform[h]=g,n=!0):(g=ea(f[1]&240,g),f[1]&1?e.setAttribute(h,g):e.style[h]=g)}}if(n){Y(e);n=e._ks.transform;l="";if(f=e._ks.mpath)g=n[0],0>g&&(g=0),100<g&&(g=100),g=g*f[2]/100,h=f[1].getPointAtLength(g),l="translate("+h.x+","+h.y+") ",f[0]&&(.5>g?(g=h,h=f[1].getPointAtLength(.5)):g=f[1].getPointAtLength(g-.5),l+="rotate("+180*Math.atan2(h.y-g.y,h.x-g.x)/Math.PI+") ");for(f=1;f<n.length;++f)h=
n[f],h!=(10==f||11==f?1:0)&&(l+=" "+ja[f]+"(",l=2>=f?l+(1==f?h+",0":"0,"+h):13<=f?l+(13==f?h+",0":"0,"+h):10<=f?l+(10==f?h+",1":"1,"+h):l+h,l+=")");e.setAttribute("transform",l)}}return"running"==this.m()},I:function(){!1!==this.l.autoremove&&"finished"==this.m()&&P(this)},D:function(){if(!this.F){this.F=!0;for(var a=this.A,b=this.C,c=0;c<a.length;++c)for(var d=a[c],e=0;e<b[c].length;++e)14>=b[c][e][0]&&Y(d)}},u:function(a){if("number"==typeof a)return a;if(!t(this.l.markers)||!t(this.l.markers[a]))throw Error("Invalid marker: "+
a);return+this.l.markers[a]},play:function(a){t(a)&&null!==a&&(a=this.u(a),H(a),0>this.b&&a<this.g&&(a=this.g),0<this.b&&a>this.f&&(a=this.f),this.w(a,!0));if(!this.i)throw Q;a=this.j();if(0<this.b&&(null===a||a>=this.f))this.a=this.g;else if(0>this.b&&(null===a||a<=this.g)){if(Infinity==this.f)throw Error("Cannot seek to Infinity");this.a=this.f}else 0==this.b&&null===a&&(this.a=this.g);if(null===this.a)return this;this.c=null;this.o=!0;this.D();N();return this},pause:function(a){if(!this.i)throw Q;
t(a)&&(a=this.u(a),H(a));if("paused"!=this.m()){L();var b=this.j();if(null===b)if(0<=this.b)this.a=this.g;else{if(Infinity==this.f)throw Error("Cannot seek to Infinity");this.a=this.f}null!==this.c&&null===this.a&&(this.a=b);this.c=null;this.o=!1;this.B(!1);this.D();N()}t(a)&&this.w(a,!0);return this},range:function(a,b){if(0==arguments.length)return{"in":this.g,out:this.f};var c=this.u(a),d=this.v;t(b)&&(d=this.u(b));H(c);if(0>c||0>d||c>=d||isNaN(d))throw Error("Invalid range");var e=this.m();this.g=
c;this.f=d;"finished"==e&&"running"==this.m()&&this.play();return this},loop:function(a){if(!t(a))return{count:this.h};this.h=!0===a?Infinity:Math.floor(a);if(0>this.h||isNaN(this.h))this.h=0;return this},j:function(){return null!==this.a?this.a:null===this.c?null:(v-this.c)*this.b},w:function(a,b){b&&L();null!==a&&(this.D(),null!==this.a||null===this.c||0==this.b?(this.a=a,O(!1)):this.c=v-a/this.b,this.i||(this.c=null),this.s=null,this.B(!0),N())},G:function(){return this.j()},time:function(a){if(t(a)){if(!this.i)throw Q;
a=this.u(a);H(a);this.w(a,!0);return this}return this.G()},m:function(){var a=this.j();return this.o?"running":null===a?"idle":null===this.c?"paused":0<this.b&&a>=this.f||0>this.b&&a<=this.g?"finished":"running"},state:function(){return this.m()},duration:function(){return this.v},H:function(a){H(a);L();var b=this.j();this.b=a;null!==b&&this.w(b,!1)},rate:function(a){return t(a)?(this.H(a),this):this.b},marker:function(a){return t(this.l.markers)?this.l.markers[a]:void 0},_cancel:function(){if(!this.i||
"idle"==this.m())return this;this.c=this.a=null;this.o=!1;return this}};return{version:"1.1.0",animate:function(){var a={};if(1==arguments.length%2){a=arguments[arguments.length-1];var b={};for(c in a)b[c]=a[c];a=b}var c=new Z(a);a=arguments;for(var d=b=0;d<a.length-1;d+=2){var e=a[d];var n=e instanceof Element?e:document.getElementById(e.substring(1));if(!n)throw Error("Invalid target: "+e);e=n;n=a[d+1];e._ks||(e._ks={});for(var l=[],f=0;f<n.length;++f){var h=n[f],g=J(h,"p","property");if("string"!=
typeof g||-1!=g.indexOf("-")||""===g||!(0<S[g]||0<=ba.indexOf(g)))throw Error("Invalid property: "+g);var q=ba.indexOf(g);""!==g&&0<=q&&(g=q);q=R(g);var m=J(h,"t","times");if(!m||2>m.length)throw Error("Not enough times");m=m.slice();if(!isFinite(m[0])||0>m[0])throw Error("Invalid time: "+m[0]);for(var B=1;B<m.length;++B)if(!isFinite(m[B])||0>m[B]||m[B]<m[B-1])throw Error("Invalid time: "+m[B]);B=m[0];var v=m[m.length-1]-B,y=h.iterations||0;1>y&&(y=1);v*=y;b<v+B&&(b=v+B);var u=J(h,"v","values");if(!u||
u.length!=m.length)throw Error("Values do not match times");u=u.slice();for(var C=g,k=u,w=R(C)&240,p=0;p<k.length;++p)if(96==w){for(var G=k[p].substring(6,k[p].length-2).match(/[A-DF-Za-df-z][-+0-9eE., ]*/ig),A=[],r=0;r<G.length;++r){A.push(G[r][0]);for(var z=1<G[r].trim().length?G[r].substring(1).split(","):[],F=0;F<z.length;++F)z[F]=parseFloat(z[F]);A.push(z)}k[p]=A}else if(48==w)x(k[p],"#")?(G=9==k[p].length,k[p]=parseInt(k[p].substring(1),16),G||(k[p]=256*k[p]|255)):x(k[p],"url(")||"none"==k[p]||
(console.warn("unsupported color: "+k[p]),k[p]=0);else if(80==w){G=k;A=p;r=k[p];if("none"==r)r=[0];else{z=[];for(var D=r.indexOf("(");0<D;)if(F=T.indexOf(r.substring(0,D)),0<=F){z.push(F);var E=r.indexOf(") ");0>E&&(E=r.length-1);D=r.substring(D+1,E).split(" ");5==F?(z.push(parseFloat(D[0])),z.push(parseFloat(D[1])),z.push(parseFloat(D[2])),z.push(ia(D[3]))):1==F?z.push(D[0]):z.push(parseFloat(D[0]));r=r.substring(E+1).trim();D=r.indexOf("(")}else break;r=z}G[A]=r}else 64==w?"none"!=k[p]?/^[0-9 .]*$/.test(k[p])?
k[p]=X(k[p]," "):(console.warn("unsupported value: "+k[p]),k[p]=[0]):k[p]=[0]:32==w?(H(k[p]),k[p]=parseFloat(k[p])):0===C&&(k[p]=parseFloat(k[p]));C=J(h,"e","easing");k=m.length;for(C||(C=[]);C.length<k;)C.push([1,0,0,.58,1]);for(k=0;k<C.length;++k)C[k]=ha(C[k]);q=[g,q,B,v,m,u,C,y];m=J(h,"mp","motionPath");t(m)&&0===g&&(q[8]=[],q[8][0]=h.motionRotate,h=document.createElementNS("http://www.w3.org/2000/svg","path"),m||(m="M0,0"),h.setAttribute("d",m),q[8][1]=h,q[8][2]=h.getTotalLength());l.push(q)}0<
l.length&&(c.A.push(e),c.C.push(l))}c.v=b;c.g=0;c.f=c.v;aa(c);return c},add:aa,remove:P,removeAll:function(){for(var a=w.length-1;0<=a;--a)P(w[a]);return this},timelines:function(){return w.slice()},globalPlay:function(){u&&(V=u-(new Date).getTime(),u=void 0,N());return this},globalPause:function(){u||(u=v,O(!1));return this},globalState:function(){return u?"paused":"running"}}}();
]]></script><script><![CDATA[if(KeyshapeJS.version.indexOf('1.')!=0)throw Error('Expected KeyshapeJS v1.*.*');window.ks=document.ks=KeyshapeJS;(function(ks){
ks.animate("#_a0",[{p:'mpath',t:[0,2000,2300,2400,3000],v:['0%','0%','50%','100%','100%'],e:[[1,0.75,0,0.58,1],[1,0.75,0,0.58,1],[1,0.75,0,0.58,1],[1,0.75,0,0.58,1],[0]],mp:"M236.22,23.6772L236.22,23.6772L241.22,23.6772L236.22,23.6772L236.22,23.6772"},{p:'rotate',t:[0,2000,2300,2400,3000],v:[0,0,11,0,0],e:[[1,0.75,0,0.58,1],[1,0.75,0,0.58,1],[1,0.75,0,0.58,1],[1,0.75,0,0.58,1],[0]]}],
"#horn",[{p:'mpath',t:[0,800,2200,3000],v:['0%','23.775359%','73.775359%','100%'],e:[[0],[0],[0],[0]],mp:"M316.386,64.8148L310.474,64.8148L322.907,64.8148L316.386,64.8148"}],
"#_a1",[{p:'d',t:[0,300,600,900,1000,1100,1300],v:["path('M256.577,120.187C252.87,109.799,244.968,91.9994,240.757,81.8224C237.782,74.6448,234.368,67.638,232.149,60.1597C232.149,60.1597,327.133,60.0703,327.133,60.0703C328.507,60.0703,329.897,60.0134,330.783,61.3139C335.961,68.9873,341.862,76.1649,346.227,84.3585C324.367,110.334,268.323,117.765,256.577,120.187Z')","path('M256.577,120.187C252.87,109.799,244.968,91.9994,240.757,81.8224C237.782,74.6448,234.368,67.638,232.149,60.1597C243.832,57.9989,313.888,58.3354,323.377,60.3524C324.751,60.3524,334.946,60.7506,335.832,62.0511C347,65.6411,349.334,65.2042,353.699,73.3978C329.389,97.4036,270.804,116.256,256.577,120.187Z')","path('M256.577,120.187C252.87,109.799,244.968,91.9994,240.757,81.8224C237.782,74.6448,234.368,67.638,232.149,60.1597C255.515,55.8381,306.86,55.7894,325.839,59.8235C327.212,59.8235,344.168,63.6354,345.054,64.9359C348.698,70.9618,352.458,71.2823,351.048,80.8019C324.288,102.838,273.284,114.748,256.577,120.187Z')","path('M256.577,120.187C252.87,109.799,244.968,91.9994,240.757,81.8224C237.782,74.6448,234.368,67.638,232.149,60.1597C267.198,53.6774,299.832,53.2434,328.3,59.2946C329.674,59.2946,345.043,62.2251,345.929,63.5256C342.05,71.9875,341.862,76.1649,346.227,84.3585C317.017,104.425,275.765,113.239,256.577,120.187Z')","path('M256.577,120.187C252.87,109.799,244.968,91.9994,240.757,81.8224C237.782,74.6448,234.368,67.638,232.149,60.1597C255.515,55.8381,306.86,55.7894,325.839,59.8235C327.212,59.8235,344.168,63.6354,345.054,64.9359C348.698,70.9618,352.458,71.2823,351.048,80.8019C324.288,102.838,273.284,114.748,256.577,120.187Z')","path('M256.577,120.187C252.87,109.799,244.968,91.9994,240.757,81.8224C237.782,74.6448,234.368,67.638,232.149,60.1597C243.832,57.9989,313.888,58.3354,323.377,60.3524C324.751,60.3524,334.946,60.7506,335.832,62.0511C347,65.6411,349.334,65.2042,353.699,73.3978C329.389,97.4036,270.804,116.256,256.577,120.187Z')","path('M256.577,120.187C252.87,109.799,244.968,91.9994,240.757,81.8224C237.782,74.6448,234.368,67.638,232.149,60.1597C232.149,60.1597,327.133,60.0703,327.133,60.0703C328.507,60.0703,329.897,60.0134,330.783,61.3139C335.961,68.9873,341.862,76.1649,346.227,84.3585C324.367,110.334,268.323,117.765,256.577,120.187Z')"],e:[[1,0.42,0,0.32,1],[1,0.42,0,0.32,1],[1,0.42,0,0.32,1],[0],[1,0.42,0,0.32,1],[1,0.42,0,0.32,1],[0]]}],
"#_a2",[{p:'mpath',t:[0,900,1300],v:['0%','50%','100%'],e:[[1,0.42,0,0.32,1],[0],[0]],mp:"M113.214,49.7812L112.387,60.5223L113.214,49.7812"},{p:'scaleX',t:[0,900,1300],v:[1,1,1],e:[[1,0.42,0,0.32,1],[0],[0]]},{p:'scaleY',t:[0,900,1300],v:[1,-1.04764,1],e:[[1,0.42,0,0.32,1],[0],[0]]}],
"#horn_l",[{p:'mpath',t:[0,800,2200,3000],v:['0%','23.775209%','73.775209%','100%'],e:[[0],[0],[0],[0]],mp:"M77.6,65.2294L71.6881,65.2294L84.121,65.2294L77.6,65.2294"}],
"#sh_r",[{p:'mpath',t:[0,800,1400,2200,3000],v:['0%','13.844162%','37.353557%','69.035621%','100%'],e:[[1,0.75,0,0.58,1],[1,0.75,0,0.58,1],[1,0.75,0,0.58,1],[1,0.75,0,0.58,1],[0]],mp:"M253.774,219.522L252.53,221.595L255.433,218.692L256.677,224.083L253.774,219.521"}],
"#sh_l",[{p:'mpath',t:[0,800,1400,2200,3000],v:['0%','13.848348%','37.35658%','69.037159%','100%'],e:[[1,0.75,0,0.58,1],[1,0.75,0,0.58,1],[1,0.75,0,0.58,1],[1,0.75,0,0.58,1],[0]],mp:"M140.108,219.613L138.864,221.687L141.767,218.784L143.011,224.175L140.108,219.613"}],
"#mouth",[{p:'mpath',t:[0,700,1400,2200,3000],v:['0%','21.40811%','42.779639%','71.655141%','100%'],e:[[1,0.42,0,0.25,1],[1,0.42,0,0.25,1],[1,0.42,0,0.25,1],[1,0.42,0,0.25,1],[0]],mp:"M195.993,278.445L194.904,282.503L195.847,278.416L198.991,283.131L195.993,278.445"}],
"#ring",[{p:'mpath',t:[0,3000],v:['0%','0%'],e:[[0],[0]],mp:"M197.45,251.665L197.45,251.665"},{p:'skewX',t:[0,700,1500,2200,3000],v:[0,-4,-0.61,4.67,0],e:[[1,0.42,0,0.25,1],[1,0.42,0,0.25,1],[1,0.42,0,0.25,1],[1,0.42,0,0.25,1],[0]]},{p:'skewY',t:[0,700,1500,2200,3000],v:[0,0,0,0,0],e:[[1,0.42,0,0.25,1],[1,0.42,0,0.25,1],[1,0.42,0,0.25,1],[1,0.42,0,0.25,1],[0]]}],
{autoremove:false}).range(0,3000);
if(document.location.search.substr(1).split('&').indexOf('global=paused')>=0)ks.globalPause()})(KeyshapeJS);
]]></script></svg>