<?xml version="1.0" encoding="UTF-8" standalone="no"?>
<svg xmlns="http://www.w3.org/2000/svg" width="400" height="355" viewBox="0 0 400 355" fill="none">
    <g id="uhi" transform="translate(196.987,128.017) translate(-152.74,-28.2301)">
        <path d="M35.276,99.8109C57.3119,87.019,84.3432,102.079,93.7368,112.418C95.2244,122.238,97.9149,131.805,99.7683,141.559C100.671,146.437,102.329,151.167,102.256,156.191L94.1677,156.036C93.2247,153.834,91.2739,152.492,89.6644,150.883C83.4379,144.689,77.0895,138.609,70.9687,132.342C70.3056,131.593,69.4852,130.999,68.5662,130.605C67.6472,130.21,66.6522,130.023,65.6526,130.057C55.3699,130.139,45.0872,130.122,34.8046,130.139C32.2847,127.7,29.6023,125.448,27.2694,122.864C23.2051,118.344,23.327,112.426,27.497,107.907C29.9681,105.135,32.6505,102.542,35.276,99.8109Z" fill="#3920B1" transform="translate(38.9822,28.2144) translate(-63.2761,-128.001)"/>
        <path d="M34.7395,130.131C45.0222,130.131,55.3049,130.131,65.6282,130.049C66.6278,130.015,67.6228,130.202,68.5418,130.597C69.4608,130.991,70.2812,131.584,70.9443,132.333C77.0976,138.601,83.446,144.681,89.64,150.875C91.2657,152.5,93.2003,153.825,94.1432,156.028C85.1368,155.833,76.0409,157.272,67.1563,154.63C61.2875,152.882,55.6706,150.647,51.0536,146.453C45.3287,141.307,39.8829,135.858,34.7395,130.131L34.7395,130.131Z" fill="#ACCDFF" transform="translate(40.1474,43.3594) translate(-64.4413,-143.146)"/>
        <g id="_a0" transform="translate(236.22,23.6772) translate(0,0) translate(-8.74,-23.6772)">
            <path d="M260.235,112.426C264.459,106.808,278.743,101.848,290.472,99.32C298.243,97.653,310.178,96.5612,318.704,99.7865C321.321,102.485,324.003,105.119,326.556,107.915C330.734,112.443,330.88,118.344,326.783,122.872C324.442,125.457,321.768,127.749,319.24,130.147L288.465,130.09C286.685,130.09,285.116,130.244,283.694,131.716C279.264,136.26,274.5,140.47,270.2,145.12C266.949,148.647,262.698,151.362,260.625,155.955L251.773,156.191C252,149.038,254.057,142.177,255.536,135.26C257.154,127.651,258.95,120.092,260.235,112.426Z" fill="#3920B1" transform="translate(39.0006,28.2023) translate(-290.774,-127.989)"/>
            <path d="M260.625,155.923C262.698,151.33,266.933,148.607,270.2,145.087C274.5,140.438,279.264,136.227,283.694,131.683C285.116,130.228,286.685,130.057,288.465,130.057L319.24,130.114C310.445,138.974,302.828,149.143,290.31,153.614C280.516,157.134,270.574,155.971,260.625,155.923Z" fill="#ACCDFF" transform="translate(38.1595,43.3144) translate(-289.933,-143.101)"/>
        </g>
    </g>
    <g id="horn" transform="translate(316.386,64.8148) translate(0,0) translate(-57.6656,-46.8448)">
        <path id="_a1" d="M256.577,120.187C252.87,109.799,244.968,91.9994,240.757,81.8224C237.782,74.6448,234.368,67.638,232.149,60.1597L327.133,60.0703C328.507,60.0703,329.897,60.0134,330.783,61.3139C335.961,68.9873,341.862,76.1649,346.227,84.3585C324.367,110.334,268.323,117.765,256.577,120.187Z" fill="#D3EBF3" transform="translate(53.921,67.5115) translate(-292.688,-86.248)"/>
        <path id="_a2" d="M346.251,84.3585C341.862,76.1649,314.477,37.9199,307.722,27.8323C305.714,24.8328,303.56,21.9309,301.365,18.8421C303.406,18.3869,329.157,33.6198,340.383,40.6348C343.797,42.732,346.736,45.5193,349.011,48.8182C351.286,52.117,352.847,55.8547,353.594,59.7918C354.341,63.7289,354.257,67.7786,353.349,71.6815C352.44,75.5843,350.726,79.2544,348.316,82.4564C347.731,83.2123,347.316,84.1553,346.251,84.3585Z" fill="white" transform="translate(113.214,49.7812) translate(0,0) translate(-351.981,-68.5177)"/>
    </g>
    <g id="horn_l" transform="translate(77.6,65.2294) translate(0,0) translate(-57.647,-46.4222)">
        <path d="M121.839,60.1597C118.538,70.1009,114.076,79.5789,110.068,89.2356C106.874,96.9334,102.425,112.055,99.32,119.793C59.5132,115.064,53.2072,107.969,33.7489,100.771C24.1002,97.5197,17.003,91.3816,8.67932,85.6428C8.29385,85.2699,7.97251,84.836,7.72827,84.3585C12.0933,76.1486,18.0516,69.0036,23.1726,61.3139C24.0505,59.9971,25.4486,60.0703,26.8223,60.0703L121.839,60.1597Z" fill="#D3EBF3" transform="translate(61.2836,66.6702) translate(-61.2836,-86.2438)"/>
        <path d="M7.75264,84.3585C-2.58692,75.1163,-2.56253,56.5343,7.69574,45.512C11.1829,41.7647,15.5967,39.4318,19.8886,36.8713C28.9439,31.4658,49.3222,19.2322,51.4357,19.7281C43.5672,33.0996,33.7235,44.9267,25.855,57.9731C24.5951,60.9157,12.0933,76.1486,7.75264,84.3585Z" fill="white" transform="translate(57.647,32.3925) translate(-57.647,-51.966)"/>
    </g>
    <path d="M251.773,156.191C251.724,160.255,253.512,164.002,254.211,167.945C255.549,175.038,255.549,182.319,254.211,189.412C253.666,188.999,253.028,188.724,252.353,188.611C251.677,188.498,250.985,188.55,250.334,188.762C246.172,190.136,241.823,190.095,237.572,190.754C229.842,191.957,222.128,193.103,214.381,194.281L214.479,167.457C220.421,167.457,226.355,167.546,232.297,167.506C237.45,167.506,240.344,165.205,241.571,160.239C242.275,156.789,242.371,153.244,241.856,149.761C241.417,145.697,237.515,144.429,234.402,147.144C232.573,148.729,230.842,150.444,229.07,152.102C229.07,135.845,229.07,119.607,229.07,103.388C229.07,92.8203,218.641,81.5622,208.114,81.4403C187.419,81.2398,166.718,81.2398,146.012,81.4403C135.656,81.5379,125.064,92.7147,125.056,102.965C125.056,119.341,125.043,135.715,125.016,152.086C123.244,150.46,121.512,148.721,119.683,147.119C116.708,144.526,112.839,145.559,112.319,149.355C111.799,153.151,111.571,157.166,112.741,160.995C114.066,165.319,116.806,167.449,121.39,167.498C127.462,167.546,133.534,167.498,139.615,167.449L139.688,194.322C127.966,192.607,116.237,190.916,104.515,189.16C102.89,188.925,101.353,188.347,99.8576,189.453C98.1252,180.224,98.6551,170.713,101.402,161.734C102.011,159.952,102.284,158.073,102.207,156.191C102.28,151.167,100.622,146.436,99.7195,141.559C97.9068,131.805,95.2162,122.246,93.7287,112.426C96.8338,104.696,99.8658,96.9822,103.06,89.2438C107.068,79.587,111.53,70.1091,114.831,60.1678C114.928,59.9252,114.993,59.6712,115.026,59.4118L238.938,59.4118C238.978,59.6739,239.049,59.9303,239.149,60.1759C241.368,67.6542,244.782,74.6611,247.757,81.8386C251.968,92.0156,256.528,102.054,260.235,112.443C258.95,120.108,257.154,127.668,255.528,135.268C254.049,142.169,251.992,149.03,251.773,156.191Z" fill="#ACCDFF" transform="translate(196.935,126.867) translate(-176.982,-126.867)"/>
    <path id="sh_r" d="M220.763,253.496C219.059,247.905,212.531,239.739,208.294,235.713C208.359,223.58,208.229,210.974,208.294,198.847C208.294,197.107,213.373,195.891,214.365,194.289C222.095,193.111,229.809,191.965,237.556,190.762C241.807,190.103,246.156,190.144,250.318,188.77C250.969,188.558,251.661,188.506,252.336,188.619C253.011,188.732,253.649,189.007,254.195,189.42C254.195,189.697,254.122,189.973,254.089,190.233C253.823,190.575,253.627,190.967,253.514,191.386C253.401,191.805,253.373,192.242,253.431,192.672C252.537,198.646,249.854,203.93,246.928,209.067C239.271,222.366,231.565,235.642,223.81,248.897C223.425,249.463,220.763,253.496,220.763,253.496Z" fill="#3920B1" transform="translate(253.774,219.522) translate(0,0) translate(-233.821,-219.521)"/>
    <path id="sh_l" d="M150.517,235.794C146.298,239.838,135.183,251.895,133.47,257.482C123.642,241.225,111.717,218.09,103.134,201.158C101.7,198.55,100.83,195.67,100.581,192.704C100.643,192.267,100.615,191.822,100.499,191.395C100.383,190.969,100.181,190.571,99.9065,190.225C99.9065,189.957,99.8333,189.689,99.7927,189.412C101.288,188.274,102.849,188.884,104.45,189.12C116.172,190.875,140.901,192.566,152.623,194.281C152.623,206.415,149.355,234.225,150.517,235.794Z" fill="#3920B1" transform="translate(140.108,219.613) translate(0,0) translate(-120.155,-219.613)"/>
    <path d="M99.8983,190.225C100.173,190.571,100.375,190.969,100.491,191.395C100.607,191.822,100.635,192.267,100.573,192.704C100.031,191.999,99.7892,191.108,99.8983,190.225L99.8983,190.225Z" fill="#203C3F" transform="translate(120.192,191.465) translate(-100.239,-191.464)"/>
    <path d="M253.398,192.704C253.34,192.275,253.368,191.837,253.481,191.419C253.594,191,253.79,190.608,254.057,190.266C254.163,191.133,253.927,192.008,253.398,192.704L253.398,192.704Z" fill="#203C3F" transform="translate(273.678,191.485) translate(-253.725,-191.485)"/>
    <path d="M140.517,235.794C139.354,234.241,139.704,232.429,139.704,230.706C139.655,218.561,139.625,206.423,139.615,194.289L139.541,167.425L124.91,152.061C124.91,135.691,124.923,119.317,124.951,102.94C124.951,92.6903,135.518,81.5135,145.906,81.4159C166.601,81.2209,187.302,81.2209,208.008,81.4159C218.568,81.5216,229.013,92.7878,229.013,103.355C229.013,119.612,229.013,135.85,229.013,152.07L214.422,167.425L214.324,194.249C213.333,195.875,213.617,197.638,213.601,199.378C213.531,211.506,213.465,223.636,213.406,235.77C206.903,231.031,199.522,229.689,191.581,229.917C181.826,230.193,172.072,230.234,162.318,229.917C154.392,229.665,147.068,231.088,140.517,235.794ZM177.201,108.988C170.698,108.988,164.195,108.891,157.741,108.988C155.331,108.994,152.946,109.479,150.724,110.415C148.503,111.351,146.49,112.719,144.802,114.44C143.114,116.16,141.785,118.199,140.891,120.438C139.998,122.677,139.558,125.071,139.598,127.481C139.558,137.568,148.044,145.364,159.521,145.485C171.145,145.615,182.777,145.575,194.401,145.485C197.612,145.485,200.904,145.144,203.847,143.648C211.512,139.779,215.788,131.456,214.016,123.904C211.861,114.67,205.139,109.11,195.84,109.004C189.646,108.915,183.428,108.972,177.201,108.98L177.201,108.988ZM194.873,204.621C194.873,198.118,194.775,191.615,194.913,185.112C194.94,182.124,194.111,179.191,192.524,176.659C188.801,170.343,180.444,166.384,174.242,167.994C164.488,170.53,159.115,176.602,159.083,185.389C159.042,198.524,159.148,211.66,159.026,224.796C159.026,228.129,160.131,229.332,163.496,229.267C172.568,229.096,181.647,229.112,190.719,229.267C193.97,229.324,194.978,228.015,194.913,224.934C194.791,218.171,194.873,211.392,194.873,204.621Z" fill="#D3EBF3" transform="translate(196.914,158.532) translate(-176.962,-158.532)"/>
    <path d="M131.161,260.237L131.161,271.129C131.494,278.664,135.77,283.322,143.248,284.704C144.28,284.85,209.685,284.857,210.715,284.712C218.177,283.363,222.429,278.656,222.754,271.105C222.754,268.837,222.811,260.245,222.811,260.245" fill="#3920B1" transform="translate(196.939,278.856) translate(-176.986,-278.856)"/>
    <path d="M222.51,250.482C220.806,244.891,217.912,239.571,213.675,235.545C207.172,230.806,199.529,229.501,191.587,229.729C181.833,230.005,171.52,230.046,161.765,229.729C153.791,229.46,147.032,230.839,140.481,235.545C136.268,239.584,133.185,244.904,131.47,250.482C131.202,253.62,131.128,256.75,131.145,259.887C131.129,260.158,131.129,260.429,131.145,260.7L222.819,260.7C222.819,260.7,222.77,253.604,222.51,250.482Z" fill="white" transform="translate(196.929,245.314) translate(-176.976,-245.313)"/>
    <path d="M177.201,108.972C183.428,108.972,189.646,108.915,195.856,108.972C205.155,109.078,211.878,114.662,214.032,123.872C215.804,131.439,211.528,139.747,203.863,143.616C200.888,145.112,197.628,145.429,194.418,145.453C182.794,145.559,171.162,145.599,159.538,145.453C148.06,145.315,139.574,137.536,139.615,127.448C139.576,125.04,140.016,122.648,140.908,120.412C141.801,118.175,143.129,116.138,144.815,114.418C146.502,112.699,148.513,111.331,150.731,110.395C152.95,109.458,155.333,108.972,157.741,108.964C164.228,108.882,170.715,108.98,177.201,108.972Z" fill="#BE1F86" transform="translate(196.974,127.24) translate(-177.021,-127.24)"/>
    <path d="M194.873,204.621C194.873,211.392,194.775,218.171,194.913,224.942C194.978,228.023,193.97,229.332,190.719,229.275C181.648,229.129,172.568,229.112,163.496,229.275C160.131,229.34,158.993,228.137,159.026,224.804C159.148,211.668,159.026,198.533,159.083,185.397C159.083,176.61,164.456,170.538,174.242,168.002C180.444,166.376,188.801,170.351,192.524,176.667C194.111,179.199,194.94,182.132,194.913,185.12C194.791,191.623,194.873,198.126,194.873,204.621Z" fill="#ACCDFF" transform="translate(196.924,198.458) translate(-176.971,-198.457)"/>
    <path d="M96.1673,112.418L89.193,123.782L96.1673,123.782L102.215,113.808L96.1673,112.418Z" fill="#D3EBF3" transform="translate(115.657,118.1) translate(-95.704,-118.1)"/>
    <path d="M250.96,108.939L258.324,125.798L262.486,122.709L254.878,107.151L250.96,108.939Z" fill="#D3EBF3" transform="translate(276.676,116.475) translate(-256.723,-116.475)"/>
    <path d="M0,0L1.80085,4.50213" fill="#3920b1" stroke="none" transform="translate(245.42,260.763)"/>
    <g id="vr" transform="translate(197.253,159.008) translate(-108.295,-55.5466)">
        <path d="M274.679,126.838L260.235,122.051C260.235,122.051,255.658,113.004,254.114,109.476L253.342,109.931C254.813,113.906,256.292,117.881,257.934,122.303L94.9317,122.303L98.3376,114.8L97.7605,114.353C96.6469,116.401,92.6313,122.238,92.6313,122.238C92.6313,122.238,84.4052,125.611,80.2434,126.229C84.202,120.327,89.0629,112.662,92.9809,107.809C94.7649,105.763,97.2743,104.489,99.9796,104.257C109.279,103.704,118.61,103.648,127.926,103.631C168.398,103.55,208.862,103.631,249.334,103.461C256.406,103.461,261.844,105.981,265.315,113.76C267.437,117.247,274.679,126.838,274.679,126.838Z" fill="#0b0c47" transform="translate(108.457,11.6885) translate(-177.461,-115.15)"/>
        <path d="M277.784,134.886C277.321,129.586,274.834,125.44,269.656,123.294C268.171,122.644,266.577,122.278,264.957,122.213L257.528,121.969C244.099,121.969,100.069,122.059,90.7456,122.27C82.2674,122.465,77.7398,126.497,76.927,134.748C76.4311,139.625,76.5856,144.624,76.5774,149.566C76.5341,165.791,76.5341,182.013,76.5774,198.232C76.5774,206.808,79.8289,211.668,86.7626,213.286C90.079,214.05,154.067,214.53,154.067,214.53L154.108,214.53C155.676,214.521,157.221,214.145,158.618,213.432C160.016,212.719,161.227,211.689,162.155,210.425C163.935,208.084,165.968,205.913,167.927,203.711C173.706,197.208,180.461,197.118,186.289,203.499C188.337,205.743,190.532,207.897,192.402,210.287C194.922,213.497,198.149,214.57,202.156,214.554C221.372,214.473,240.58,214.554,259.796,214.554C273.062,214.554,277.792,209.913,277.833,196.785C277.882,179.105,277.833,161.417,277.833,143.73C277.849,140.746,278.053,137.796,277.784,134.886Z" fill="#0f0f75" transform="translate(108.229,64.8006) translate(-177.234,-168.262)"/>
        <g filter="none" transform="translate(108.092,65.6096) translate(-177.096,-169.071)">
            <path d="M266.916,143.73C266.502,139.064,264.315,135.406,259.771,133.52C258.465,132.944,257.061,132.618,255.634,132.561L249.09,132.35C237.255,132.35,107.921,132.423,99.7032,132.618C92.233,132.789,88.25,136.341,87.5103,143.608C87.0714,147.924,87.2096,152.313,87.2014,156.662C87.1608,170.96,87.1445,177.122,87.2014,191.412C87.2014,198.963,90.0464,203.247,96.1429,204.67C99.0692,205.353,153.002,205.775,153.002,205.775C154.385,205.769,155.746,205.439,156.977,204.811C158.208,204.182,159.275,203.274,160.09,202.158C161.667,200.093,163.456,198.183,165.179,196.24C170.276,190.493,183.533,190.428,188.671,196.053C190.483,198.037,192.41,199.931,194.06,202.036C196.279,204.865,199.124,205.808,202.652,205.791C219.584,205.726,234.069,205.791,251.001,205.791C262.69,205.791,266.859,201.727,266.892,190.136C266.933,174.553,266.892,167.099,266.892,151.525C266.965,148.875,267.144,146.29,266.916,143.73Z" fill="#000021" transform="translate(177.096,169.071) translate(-177.096,-169.071)"/>
        </g>
        <g id="glasses" data-name="Layer 1" transform="translate(108.131,65.528) scale(0.81,0.81) translate(-110.875,-45.16)">
            <path class="cls-1" d="M168.28,90.27L165.43,88.64L162.58,90.27Z" fill="#0d0d59" transform="translate(165.43,89.455) translate(-165.43,-89.455)"/>
            <path class="cls-1" d="M159.3,90.27L165,87L165.4,86.78L165.8,87L171.52,90.26L177.45,90.26L165.45,83.36L153.4,90.26Z" fill="#0d0d59" transform="translate(165.425,86.815) translate(-165.425,-86.815)"/>
            <path class="cls-1" d="M12.71,81.59L13.09,81.81L26.8,89.61L29.07,89.61L42.87,81.76L43.25,81.54L43.63,81.76L58.2,90.1L58.83,90.1L73.41,81.8L73.79,81.58L74.18,81.8L86.47,88.8C87.4005,88.2648,88.2436,87.5903,88.97,86.8L88.68,86.63L73.8,78.11L58.91,86.65L58.52,86.88L58.13,86.65L43.25,78.12L28.37,86.65L27.98,86.87L27.59,86.65L12.71,78.11L2.83,83.77C3.41949,84.5975,4.1117,85.3469,4.89,86L12.32,81.77Z" fill="#0d0d59" transform="translate(45.9,84.105) translate(-45.9,-84.105)"/>
            <path class="cls-1" d="M2,82.45L12.29,76.59L12.67,76.37L13.04,76.59L28,85.07L42.89,76.58L43.27,76.37L43.65,76.58L58.54,85.06L73.44,76.59L73.82,76.37L74.19,76.59L89.09,85.07L91.57,83.66C93.03,81.93,94.57,80.25,96.07,78.56C98.32,76.02,101.87,74.39,105.79,73.65L104.36,72.83L89.46,81.39L89.09,81.61L88.71,81.39L73.81,72.84L58.9,81.39L58.52,81.6L58.15,81.39L43.25,72.83L28.35,81.39L28,81.6L27.62,81.39L12.71,72.84L0.92,79.6C1.18296,80.584,1.5448,81.5389,2,82.45Z" fill="#0d0d59" transform="translate(53.355,78.95) translate(-53.355,-78.95)"/>
            <path class="cls-1" d="M189.82,90.29L195.57,87L195.97,86.77L196.37,87L202.11,90.26C203.872,90.2596,205.633,90.1426,207.38,89.91L196,83.38L183.94,90.28Z" fill="#0d0d59" transform="translate(195.66,86.835) translate(-195.66,-86.835)"/>
            <path class="cls-1" d="M198.84,90.29L196,88.65L193.13,90.29Z" fill="#0d0d59" transform="translate(195.985,89.47) translate(-195.985,-89.47)"/>
            <path class="cls-1" d="M45.52,89.94L43.25,88.64L41.1,89.87Z" fill="#0d0d59" transform="translate(43.31,89.29) translate(-43.31,-89.29)"/>
            <path class="cls-1" d="M12.71,86.78L13.11,87.01L17.22,89.35C19.01,89.42,21.12,89.48,23.46,89.54L12.71,83.36L6.28,87.05C7.31371,87.6938,8.42625,88.2013,9.59,88.56L12.31,87Z" fill="#0d0d59" transform="translate(14.87,86.45) translate(-14.87,-86.45)"/>
            <path class="cls-1" d="M37.92,89.82L42.85,87L43.25,86.78L43.65,87L48.86,90L54.93,90.08L43.25,83.37L32.17,89.72Z" fill="#0d0d59" transform="translate(43.55,86.725) translate(-43.55,-86.725)"/>
            <path class="cls-1" d="M67.78,90.21L73.39,87L73.79,86.77L74.2,87L80,90.32L81,90.32L81,90.32C82.2386,90.2746,83.4643,90.0524,84.64,89.66L73.79,83.37L62,90.14Z" fill="#0d0d59" transform="translate(73.32,86.845) translate(-73.32,-86.845)"/>
            <path class="cls-1" d="M0.55,78.09L12.35,71.37L12.71,71.17L13.07,71.37L28,79.86L42.91,71.38L43.27,71.18L43.63,71.38L58.54,79.86L73.46,71.37L73.81,71.17L74.17,71.37L89.09,79.85L104,71.38L104.36,71.18L104.72,71.38L108.14,73.32C110.323,73.1145,112.522,73.1749,114.69,73.5L104.36,67.57L89.43,76.13L89.07,76.33L88.71,76.13L73.79,67.57L58.88,76.13L58.52,76.33L58.16,76.13L43.25,67.57L28.34,76.13L27.98,76.33L27.62,76.13L12.71,67.57L0.12,74.79C0.190232,75.8983,0.33388,77.0007,0.55,78.09Z" fill="#0d0d59" transform="translate(57.405,73.715) translate(-57.405,-73.715)"/>
            <path class="cls-1" d="M84.9,0.1L76.78,0.1L89.07,7.1L101.42,0.1L93.26,0.1L89.2,2.42L89.07,2.5L88.93,2.42Z" fill="#0d0d59" transform="translate(89.1,3.6) translate(-89.1,-3.6)"/>
            <path class="cls-1" d="M131.58,85.69C132.128,86.3934,132.751,87.034,133.44,87.6L134.44,87.01L134.84,86.78L135.24,87.01L141,90.28C141.37,90.28,141.74,90.28,142.13,90.28L147,90.28L134.93,83.36L131.39,85.36Z" fill="#0d0d59" transform="translate(139.195,86.82) translate(-139.195,-86.82)"/>
            <path class="cls-1" d="M24.08,0.25L16.08,0.31L28,7.07L40.12,0.19L31.94,0.19L28.11,2.39L28,2.5L27.87,2.42Z" fill="#0d0d59" transform="translate(28.1,3.63) translate(-28.1,-3.63)"/>
            <path class="cls-1" d="M54.45,0.15L46.35,0.15L58.52,7.05L70.79,0.12L62.63,0.12L58.63,2.41L58.49,2.48L58.36,2.41Z" fill="#0d0d59" transform="translate(58.57,3.585) translate(-58.57,-3.585)"/>
            <path class="cls-1" d="M145.86,0L137.73,0L150.15,7L162.62,0L154.46,0L150.29,2.4L150.15,2.48L150,2.42Z" fill="#0d0d59" transform="translate(150.175,3.5) translate(-150.175,-3.5)"/>
            <path class="cls-1" d="M115.37,0.06L107.25,0.06L119.61,7.06L132,0L123.85,0L119.72,2.37L119.59,2.45L119.46,2.37Z" fill="#0d0d59" transform="translate(119.625,3.53) translate(-119.625,-3.53)"/>
            <path class="cls-1" d="M12.71,88.64L11.93,89.08L13.68,89.2Z" fill="#0d0d59" transform="translate(12.805,88.92) translate(-12.805,-88.92)"/>
            <path class="cls-1" d="M15.07,0.34C12.2342,0.358993,9.44247,1.04407,6.92,2.34L6.8,2.41C3.9101,4.1176,1.84908,6.93795,1.1,10.21L12.56,3.71L12.71,3.63L12.85,3.71L28,12.26L43.11,3.68L43.25,3.6L43.39,3.68L58.52,12.26L73.65,3.68L73.79,3.6L73.94,3.68L89.07,12.26L104.2,3.68L104.34,3.6L104.48,3.68L119.61,12.26L134.74,3.68L134.88,3.6L135.03,3.68L150.15,12.26L165.28,3.68L165.43,3.6L165.57,3.68L180.7,12.26L195.83,3.68L196,3.6L196.14,3.68L211.27,12.26L219.39,7.66C218.766,6.47776,217.959,5.40124,217,4.47L211.4,7.69L211.24,7.78L211.09,7.69L197.74,0L194.2,0L180.85,7.69L180.7,7.78L180.55,7.69L167.22,0L163.63,0L150.31,7.69L150.15,7.78L150,7.69L136.71,0L133.05,0L119.76,7.69L119.61,7.78L119.46,7.69L106.22,0.07L102.44,0.07L89.22,7.69L89.07,7.78L88.92,7.69L75.76,0.11L71.76,0.11L58.67,7.69L58.52,7.78L58.37,7.69L45.33,0.18L41.15,0.18L28.15,7.68L28,7.78L27.85,7.69Z" fill="#0d0d59" transform="translate(110.245,6.13) translate(-110.245,-6.13)"/>
            <path class="cls-1" d="M207.38,0.27L207.25,0.27L199.19,0L198.77,0L211.24,7.07L216.56,4.07C215.427,3.06753,214.145,2.24769,212.76,1.64L211.38,2.43L211.24,2.51L211.11,2.43Z" fill="#0d0d59" transform="translate(207.665,3.535) translate(-207.665,-3.535)"/>
            <path class="cls-1" d="M176.37,0L168.23,0L180.7,7.07L193.18,0L185,0L180.79,2.42L180.66,2.5L180.52,2.42Z" fill="#0d0d59" transform="translate(180.705,3.535) translate(-180.705,-3.535)"/>
            <path class="cls-1" d="M76.66,90.29L73.79,88.65L71,90.24Z" fill="#0d0d59" transform="translate(73.83,89.47) translate(-73.83,-89.47)"/>
            <path class="cls-1" d="M211.47,28.77L211.24,28.9L211.01,28.77L196.01,20.11L181.01,28.77L180.78,28.9L180.55,28.77L165.55,20.11L150.5,28.77L150.27,28.9L150.05,28.77L135,20.11L120,28.77L119.77,28.9L119.54,28.77L104.54,20.11L97.11,24.37L89.5,28.77L89.27,28.9L89.04,28.77L74.04,20.11L59.04,28.77L58.81,28.9L58.58,28.77L54.78,26.57L50.96,24.38L43.54,20.11L28.54,28.77L28,28.9L27.77,28.77L12.77,20.11L0,27.4L0,31.57L12.45,24.49L12.67,24.37L12.89,24.49L28,33.05L43,24.5L43.22,24.38L43.44,24.5L58.49,33.05L73.49,24.49L73.71,24.37L73.94,24.49L88.94,33.05L103.99,24.5L104.21,24.38L104.43,24.5L119.43,33.04L134.43,24.49L134.65,24.37L134.87,24.49L149.92,33.05L164.98,24.49L165.2,24.37L165.42,24.49L180.42,33.04L195.47,24.49L195.69,24.37L195.91,24.49L210.96,33.05L220.9,27.4L220.9,23.53C220.9,23.41,220.9,23.29,220.9,23.17Z" fill="#0d0d59" transform="translate(110.45,26.58) translate(-110.45,-26.58)"/>
            <path class="cls-1" d="M211.24,1.88L212.15,1.37C211.009,0.890237,209.814,0.554321,208.59,0.37Z" fill="#0d0d59" transform="translate(210.37,1.125) translate(-210.37,-1.125)"/>
            <path class="cls-1" d="M211.24,23.62L211,23.5L196,14.83L180.91,23.5L180.7,23.62L180.49,23.5L165.43,14.83L150.36,23.5L150.15,23.62L149.95,23.5L134.88,14.83L119.82,23.5L119.61,23.62L119.4,23.5L104.34,14.83L89.27,23.5L89.07,23.61L88.86,23.5C86.31,22.05,83.78,20.57,81.24,19.11L73.79,14.83L58.73,23.5L58.52,23.61L58.32,23.5L43.25,14.83L28.19,23.5L27.98,23.62L27.77,23.5L12.71,14.83L0,22.12C0,23.54,0,25,0,26.37L12.48,19.29L12.68,19.18L12.88,19.29L28,27.84L43.07,19.29L43.27,19.18L43.47,19.29L51.12,23.63L54.94,25.8L58.54,27.8L73.61,19.25L73.81,19.14L74.01,19.25L89.09,27.8L96.51,23.6L104.16,19.25L104.36,19.14L104.56,19.25L119.63,27.8L134.7,19.25L134.9,19.14L135.1,19.25L150.17,27.8L165.25,19.25L165.45,19.14L165.65,19.25L180.72,27.8L195.79,19.25L195.99,19.14L196.19,19.25L211.26,27.8L221.26,22.15C221.26,20.71,221.31,19.26,221.32,17.81L211.51,23.46Z" fill="#0d0d59" transform="translate(110.66,21.335) translate(-110.66,-21.335)"/>
            <path class="cls-1" d="M211.24,18.34L211.05,18.23L196,9.55L180.92,18.23L180.73,18.34L180.54,18.23L165.43,9.55L150.35,18.23L150.15,18.34L149.96,18.23L134.88,9.55L119.8,18.23L119.61,18.34L119.42,18.23L104.34,9.55L89.26,18.23L89.07,18.34L88.88,18.23L73.79,9.55L58.71,18.23L58.52,18.34L58.33,18.23L43.25,9.55L28.17,18.23L27.98,18.34L27.79,18.23L12.71,9.55L0.2,16.75C0.12,18.22,0.07,19.69,0.05,21.17L12.52,14.09L12.71,13.99L12.89,14.09L28,22.65L43.09,14.09L43.27,13.99L43.45,14.09L58.54,22.65L73.63,14.09L73.81,13.99L74,14.09L81.64,18.43C84.12,19.84,86.64,21.23,89.09,22.65L104.18,14.09L104.36,13.99L104.54,14.09L119.63,22.65L134.72,14.09L134.9,13.99L135.08,14.09L150.17,22.65L165.27,14.09L165.45,13.99L165.63,14.09L180.72,22.65L195.81,14.09L196,14L196.18,14.1L211.27,22.66L221.27,16.98C221.27,15.98,221.27,14.98,221.14,13.98C221.14,13.55,221.04,13.13,220.98,12.72L211.44,18.21Z" fill="#0d0d59" transform="translate(110.66,16.105) translate(-110.66,-16.105)"/>
            <path class="cls-1" d="M180.7,1.88L184,0L177.38,0Z" fill="#0d0d59" transform="translate(180.69,0.94) translate(-180.69,-0.94)"/>
            <path class="cls-1" d="M211.24,13.06L211.07,12.96L196,4.27L180.87,13L180.7,13.1L180.53,13L165.43,4.31L150.33,13L150.15,13.1L150,13L134.9,4.31L119.78,13L119.61,13.1L119.44,13L104.34,4.31L89.24,13L89.07,13.1L88.89,13L73.79,4.27L58.7,13L58.52,13.1L58.35,13L43.25,4.27L28.15,13L27.98,13.1L27.81,13L12.71,4.27L0.87,11.08C0.668254,11.9942,0.518018,12.919,0.42,13.85C0.35,14.52,0.3,15.19,0.25,15.85L12.54,8.85L12.71,8.76L12.87,8.85L28,17.45L43.09,8.88L43.25,8.79L43.41,8.88L58.52,17.45L73.63,8.88L73.79,8.79L73.96,8.88L89.07,17.45L104.17,8.88L104.34,8.79L104.5,8.88L119.61,17.46L134.72,8.88L134.88,8.79L135.05,8.88L150.15,17.46L165.26,8.89L165.43,8.79L165.59,8.89L180.7,17.46L195.81,8.88L195.97,8.79L196.13,8.88L211.24,17.45L220.85,12C220.604,10.6948,220.198,9.42516,219.64,8.22L211.42,13Z" fill="#0d0d59" transform="translate(110.55,10.865) translate(-110.55,-10.865)"/>
            <path class="cls-1" d="M150.15,1.88L153.43,0L146.88,0Z" fill="#0d0d59" transform="translate(150.155,0.94) translate(-150.155,-0.94)"/>
            <path class="cls-1" d="M58.52,1.88L61.59,0.14L55.48,0.14Z" fill="#0d0d59" transform="translate(58.535,1.01) translate(-58.535,-1.01)"/>
            <path class="cls-1" d="M28,1.88L30.91,0.22L25.1,0.25Z" fill="#0d0d59" transform="translate(28.005,1.05) translate(-28.005,-1.05)"/>
            <path class="cls-1" d="M89.07,1.88L92.23,0.09L85.92,0.09Z" fill="#0d0d59" transform="translate(89.075,0.985) translate(-89.075,-0.985)"/>
            <path class="cls-1" d="M119.61,1.88L122.84,0.05L116.39,0.05Z" fill="#0d0d59" transform="translate(119.615,0.965) translate(-119.615,-0.965)"/>
            <path class="cls-1" d="M211.24,86.88L210.85,86.65L196,78.11L181.12,86.65L180.73,86.87L180.34,86.65L165.46,78.11L150.57,86.65L150.18,86.87L149.8,86.65L134.91,78.12L128.32,81.9C129.01,82.65,129.69,83.4,130.32,84.17L134.49,81.79L134.88,81.57L135.27,81.79L150.15,90.28L165,81.8L165.39,81.57L165.78,81.8L180.65,90.28L180.65,90.28L195.53,81.79L195.92,81.57L196.31,81.79L209.8,89.48C214.49,88.38,217.52,86.1,219.25,82.26L211.58,86.65Z" fill="#0d0d59" transform="translate(173.785,84.195) translate(-173.785,-84.195)"/>
            <path class="cls-1" d="M211.24,65.8L210.91,65.61L196,57L181,65.61L180.67,65.8L180.33,65.61L165.43,57L150.49,65.58L150.15,65.77L149.82,65.58L134.88,57L119.94,65.58L119.61,65.77L119.28,65.58L104.34,57L89.4,65.6L89.07,65.79L88.74,65.6L73.79,57L58.85,65.6L58.52,65.79L58.19,65.6L43.25,57L35.94,61.2L28.31,65.6L27.98,65.79L27.65,65.6L12.71,57L0,64.33C0,65.5,0,66.72,0,68L12.36,61L12.69,60.81L13,61L28,69.48L42.92,61L43.25,60.82L43.58,61L58.52,69.48L73.47,61L73.79,60.82L74.12,61L89.07,69.48L104,61L104.33,60.81L104.66,61C109.66,63.84,114.66,66.65,119.6,69.5L134.6,61L134.92,60.82L135.25,61L150.19,69.5L165.1,61L165.43,60.82L165.75,61C170.75,63.84,175.75,66.64,180.7,69.5L195.64,61L195.97,60.81L196.3,61L211.24,69.49L218.54,65.34L221.19,63.84C221.19,62.56,221.19,61.33,221.19,60.12L211.57,65.65Z" fill="#0d0d59" transform="translate(110.595,63.25) translate(-110.595,-63.25)"/>
            <path class="cls-1" d="M211.59,70.87L211.24,71.06L210.9,70.87L196,62.29L181,70.86L180.66,71.06L180.31,70.86C175.31,68.03,170.36,65.14,165.39,62.29L150.5,70.86L150.15,71.06L149.81,70.86L134.88,62.29L120,70.86L119.65,71.06L119.31,70.86C114.31,68.03,109.31,65.14,104.38,62.29L89.42,70.87L89.07,71.07L88.72,70.87L73.79,62.29L58.87,70.87L58.52,71.08L58.17,70.87L43.25,62.29L28.33,70.87L27.98,71.07L27.63,70.87L12.71,62.29L0,69.58C0,70.58,0,71.58,0,72.66C0,72.84,0,73,0,73.17L12.31,66.17L12.66,65.98L13,66.17L28,74.66L42.92,66.16L43.27,65.96L43.62,66.16L58.54,74.66L73.47,66.16L73.81,65.97L74.16,66.16L89.09,74.66L104,66.16L104.35,65.97L104.69,66.16L119.62,74.66L134.55,66.16L134.89,65.96L135.24,66.16L150.16,74.66L165.09,66.16L165.44,65.97L165.78,66.16L180.71,74.66L195.64,66.16L196,66L196.35,66.19L211.27,74.69L221.18,69C221.18,67.74,221.18,66.53,221.18,65.36L219.18,66.49Z" fill="#0d0d59" transform="translate(110.59,68.49) translate(-110.59,-68.49)"/>
            <path class="cls-1" d="M211.24,34.17L211,34L196,25.36L181,34L180.76,34.14L180.51,34L165.51,25.36L150.4,34L150.15,34.14L149.91,34L134.91,25.36L119.91,34L119.67,34.14L119.43,34L104.43,25.35L89.31,34L89.07,34.13L88.83,34L73.83,25.36L58.76,34L58.52,34.14L58.28,34L43.28,25.35L28.22,34L27.98,34.14L27.74,34L12.74,25.36L0,32.67L0,36.78L12.44,29.71L12.68,29.57L12.91,29.71L27.91,38.24L42.91,29.71L43.14,29.58L43.37,29.71L58.37,38.25L73.37,29.71L73.6,29.58L73.84,29.71L88.84,38.24L103.84,29.71L104.08,29.57L104.31,29.71L119.31,38.25L134.31,29.71L134.54,29.58L134.77,29.71L149.77,38.25L164.77,29.71L165.01,29.58L165.24,29.71L180.24,38.25L195.24,29.71L195.47,29.58L195.7,29.71L210.7,38.25L220.65,32.6L220.65,28.45L211.48,34Z" fill="#0d0d59" transform="translate(110.325,31.8) translate(-110.325,-31.8)"/>
            <path class="cls-1" d="M211.24,81.6L210.87,81.39L196,72.84L181.1,81.39L180.73,81.6L180.35,81.39L165.46,72.83L150.56,81.39L150.18,81.6L149.81,81.39L134.91,72.84L125.11,78.47C125.81,79.23,126.52,79.99,127.23,80.74L134.54,76.58L134.91,76.37L135.29,76.58L150.18,85.07L165.08,76.59L165.46,76.38L165.83,76.59L180.73,85.07L195.62,76.58L196,76.37L196.38,76.58L211.27,85.06L220.13,80C220.487,78.7123,220.742,77.3981,220.89,76.07L211.62,81.39Z" fill="#0d0d59" transform="translate(173,78.95) translate(-173,-78.95)"/>
            <path class="cls-1" d="M211.24,60.54L210.92,60.35L196,51.75L181,60.35L180.68,60.53L180.36,60.35L165.41,51.76L150.41,60.35L150.08,60.53L149.76,60.35L134.76,51.75L127.56,56C125.02,57.47,122.48,58.95,119.93,60.39L119.61,60.57L119.29,60.39L104.29,51.79L89.29,60.39L88.97,60.58L88.64,60.39L73.69,51.79L58.75,60.39L58.42,60.58L58.1,60.39L43.1,51.79L28.3,60.35L27.98,60.53L27.66,60.35L12.71,51.76L0,59.06C0,60.26,0,61.49,0,62.78L12.38,55.78L12.7,55.6L13.01,55.78L28.01,64.29L35.32,60.12L42.97,55.78L43.28,55.6L43.59,55.78L58.59,64.28L73.59,55.78L73.9,55.6L74.22,55.78L89.22,64.28L104.22,55.77L104.54,55.6L104.85,55.77L119.85,64.28L134.85,55.77L135.16,55.59L135.48,55.77L150.48,64.28L165.48,55.77L165.8,55.59L166.11,55.77L181.11,64.28L196.11,55.77L196.43,55.59L196.75,55.77L211.75,64.28L221.75,58.61L221.75,54.81L212.12,60.35Z" fill="#0d0d59" transform="translate(110.875,58.02) translate(-110.875,-58.02)"/>
            <path class="cls-1" d="M211.24,76.33L210.88,76.13L196,67.57L181.09,76.13L180.73,76.33L180.37,76.13L165.46,67.57L150.55,76.13L150.18,76.33L149.82,76.13L134.91,67.57L121.12,75.48C122.149,75.9966,123.113,76.6345,123.99,77.38L134.55,71.38L134.91,71.18L135.27,71.38L150.18,79.87L165.1,71.39L165.46,71.19L165.81,71.39L180.73,79.87L195.64,71.38L196,71.18L196.36,71.38L211.27,79.87L221.08,74.29C221.15,73.29,221.2,72.19,221.2,71.04L221.2,70.65L211.63,76.14Z" fill="#0d0d59" transform="translate(171.16,73.72) translate(-171.16,-73.72)"/>
            <path class="cls-1" d="M211.24,55.26L210.94,55.08L195.94,46.48L180.94,55.08L180.64,55.26L180.33,55.08L165.33,46.48L150.33,55.08L150.02,55.26L149.72,55.08L134.72,46.48L119.72,55.08L119.41,55.26L119.11,55.08L104.11,46.48L89.11,55.08L88.81,55.26L88.5,55.08L73.5,46.48L58.5,55.08L58.19,55.26L57.89,55.08L42.89,46.48L27.89,55.08L27.59,55.26L27.28,55.08L12.28,46.48L0,53.79L0,57.58L12.41,50.58L12.71,50.41L13.01,50.58L28,59L43,50.5L43.3,50.33L43.6,50.5L58.6,59L73.6,50.5L73.89,50.33L74.19,50.5L89.19,59L104.19,50.5L104.49,50.33L104.79,50.5L119.79,59C122.22,57.6,124.67,56.22,127.12,54.84L134.76,50.5L135.06,50.33L135.36,50.5L150.36,59L165.36,50.5L165.66,50.33L165.96,50.5L180.96,59L195.96,50.5L196.26,50.33L196.56,50.5L211.56,59L221.56,53.34L221.56,49.53L211.91,55.08Z" fill="#0d0d59" transform="translate(110.78,52.74) translate(-110.78,-52.74)"/>
            <path class="cls-1" d="M211.24,44.72L210.97,44.56L195.97,35.94L180.97,44.56L180.7,44.72L180.42,44.56L165.42,35.94L150.42,44.56L150.14,44.72L149.87,44.56L134.87,35.94L119.87,44.56L119.59,44.72L119.31,44.56L104.31,35.93L89.31,44.56L89.04,44.72L88.76,44.56L73.76,35.93L58.76,44.56L58.48,44.72L58.21,44.56L43.21,35.93L28.21,44.56L27.93,44.72L27.65,44.56L12.65,35.93L0,43.24C0,44.59,0,45.9,0,47.18L4.79,44.46L12.44,40.12L12.71,39.96L12.98,40.12L27.98,48.65C30.42,47.24,32.88,45.85,35.33,44.46L43,40.12L43.27,39.96L43.54,40.12L58.54,48.64L73.54,40.12L73.8,39.96L74.07,40.12L89.07,48.65C91.51,47.24,93.97,45.86,96.42,44.46L104.07,40.12L104.34,39.96L104.61,40.12L119.61,48.65L134.61,40.12L134.88,39.96L135.15,40.12L150.15,48.64L165.15,40.12L165.42,39.96L165.69,40.12L180.69,48.65L188.05,44.46C190.59,43.01,193.15,41.58,195.69,40.11L196,40L196.27,40.15L211.27,48.68L221.27,43.02C221.27,41.72,221.27,40.39,221.27,39.02L211.6,44.58Z" fill="#0d0d59" transform="translate(110.635,42.305) translate(-110.635,-42.305)"/>
            <path class="cls-1" d="M211.24,39.44L210.99,39.29L195.99,30.66L180.99,39.29L180.73,39.44L180.47,39.29L165.47,30.65L150.47,39.29L150.21,39.44L149.96,39.29L134.96,30.65L119.96,39.29L119.7,39.44L119.44,39.29L104.44,30.66L89.44,39.3L89.18,39.45L88.92,39.3L73.92,30.66L58.92,39.29L58.66,39.44L58.41,39.29L43.41,30.66L28.41,39.3L28.15,39.45L27.89,39.3L12.89,30.66L0,38C0,39.39,0,40.73,0,42L12.45,34.94L12.7,34.8L12.95,34.94L27.95,43.47L42.95,34.94L43.2,34.8L43.45,34.94L58.45,43.46L73.45,34.94L73.7,34.8L73.95,34.94L88.95,43.47L103.95,34.94L104.2,34.8L104.45,34.94L119.45,43.47L134.45,34.94L134.7,34.8L134.96,34.94L149.96,43.47L164.96,34.94L165.22,34.8L165.47,34.94L180.47,43.47L195.47,34.94L195.72,34.79L195.97,34.94L210.97,43.47L220.92,37.82L220.92,33.72L211.23,39.29Z" fill="#0d0d59" transform="translate(110.46,37.06) translate(-110.46,-37.06)"/>
            <path class="cls-1" d="M211.24,50L210.95,49.83L195.95,41.22C193.49,42.62,191.05,44.04,188.59,45.45L181,49.82L180.71,49.98L180.42,49.82L165.42,41.21L150.42,49.82L150.13,49.99L149.85,49.82L134.85,41.21L119.85,49.82L119.56,49.98L119.27,49.82L104.27,41.21L97,45.44C94.46,46.9,91.93,48.38,89.37,49.82L89.08,49.98L88.8,49.82L73.8,41.21L58.8,49.82L58.51,49.99L58.22,49.82L43.22,41.21L35.9,45.44C33.35,46.9,30.82,48.37,28.27,49.82L28,50L27.71,49.84L12.71,41.23L5.35,45.44L0,48.51L0,52.38L12.42,45.33L12.71,45.17L12.99,45.33L27.99,53.84L42.99,45.33L43.27,45.17L43.55,45.33L58.55,53.84L73.55,45.33L73.83,45.16L74.12,45.33L89.12,53.84L104.12,45.33L104.41,45.16L104.69,45.33L119.69,53.84L134.69,45.33L134.97,45.17L135.26,45.33L150.26,53.84L165.26,45.33L165.55,45.16L165.83,45.33L180.83,53.84L195.83,45.33L196.11,45.16L196.4,45.33L211.4,53.84L221.4,48.19L221.4,44.27L211.73,49.82Z" fill="#0d0d59" transform="translate(110.7,47.525) translate(-110.7,-47.525)"/>
        </g>
        <path d="M277.459,141.275C282.336,141.421,285.076,143.632,285.173,147.916C285.376,156.613,286.1,165.417,285.002,173.984C284.19,180.381,281.085,187.803,277.459,192.347C277.061,192.225,277.857,192.461,277.459,192.347L277.459,141.275Z" fill="#111165" transform="translate(212.465,63.366) translate(-281.47,-166.827)"/>
        <g fill="none" transform="translate(106.49,65.601) translate(-175.495,-169.062)" style="mix-blend-mode: multiply;">
            <path d="M204.334,132.634L237.727,132.634L149.629,205.491L113.262,205.491L204.334,132.634Z" fill="#3920B1" transform="translate(175.495,169.062) translate(-175.495,-169.062)"/>
        </g>
        <g fill="none" transform="translate(79.0925,65.601) translate(-148.097,-169.062)" style="mix-blend-mode: multiply;">
            <path d="M188.898,132.634L200.026,132.634L107.751,205.491L96.1673,205.491L188.898,132.634Z" fill="#3920B1" transform="translate(148.097,169.062) translate(-148.097,-169.062)"/>
        </g>
        <path d="M77.1464,141.275C72.2693,141.421,69.5218,143.632,69.4243,147.916C69.2292,156.613,68.4976,165.417,69.595,173.984C70.4078,180.381,73.5211,187.803,77.1464,192.347C77.5366,192.225,76.7481,192.461,77.1464,192.347L77.1464,141.275Z" fill="#111165" transform="translate(4.12684,63.366) translate(-73.1314,-166.827)"/>
        <path d="M214.178,129.131L139.785,129.131C138.007,129.131,136.566,130.572,136.566,132.35C136.566,134.127,138.007,135.569,139.785,135.569L214.178,135.569C215.956,135.569,217.397,134.127,217.397,132.35C217.397,130.572,215.956,129.131,214.178,129.131Z" fill="#ACCDFF" transform="translate(107.977,28.889) translate(-176.982,-132.35)"/>
    </g>
    <path id="mouth" d="M139.248,277.704C140.28,277.85,147.651,287.254,148.125,288.183C151.108,293.149,155.197,297.124,161.545,297.474L192.434,297.474C198.783,297.116,202.855,293.149,205.838,288.175C206.315,287.249,213.685,277.857,214.715,277.712Z" fill="#3920B1" transform="translate(195.993,278.445) translate(0,0) translate(-176.986,-278.856)"/>
    <path id="ring" d="M177.583,295.377C171.859,295.374,166.299,293.46,161.787,289.938C157.275,286.415,154.069,281.487,152.677,275.934C151.286,270.381,151.789,264.523,154.107,259.289C156.425,254.055,160.425,249.745,165.472,247.044L169.536,254.587C166.156,256.393,163.48,259.279,161.934,262.785C160.389,266.29,160.063,270.213,161.01,273.926C161.956,277.638,164.12,280.926,167.156,283.264C170.192,285.601,173.923,286.854,177.755,286.82C181.586,286.787,185.295,285.47,188.29,283.08C191.284,280.69,193.391,277.365,194.273,273.636C195.155,269.908,194.761,265.991,193.154,262.513C191.548,259.035,188.821,256.195,185.411,254.449L189.321,246.833C194.45,249.462,198.545,253.74,200.949,258.979C203.352,264.218,203.924,270.112,202.572,275.715C201.22,281.318,198.023,286.304,193.495,289.87C188.967,293.436,183.371,295.375,177.608,295.377L177.583,295.377Z" fill="#ACCDFF" transform="translate(197.45,251.665) translate(0,0) translate(-177.497,-251.665)"/>
    <path id="TXT" d="M266.916,143.73C266.502,139.064,264.315,135.406,259.771,133.52C258.465,132.944,257.061,132.618,255.634,132.561L249.09,132.35C237.255,132.35,107.921,132.423,99.7032,132.618C92.233,132.789,88.25,136.341,87.5103,143.608C87.0714,147.924,87.2096,152.313,87.2014,156.662C87.1608,170.96,87.1445,177.122,87.2014,191.412C87.2014,198.963,90.0464,203.247,96.1429,204.67C99.0692,205.353,153.002,205.775,153.002,205.775C154.385,205.769,155.746,205.439,156.977,204.811C158.208,204.182,159.275,203.274,160.09,202.158C161.667,200.093,163.456,198.183,165.179,196.24C170.276,190.493,183.533,190.428,188.671,196.053C190.483,198.037,192.41,199.931,194.06,202.036C196.279,204.865,199.124,205.808,202.652,205.791C219.584,205.726,234.069,205.791,251.001,205.791C262.69,205.791,266.859,201.727,266.892,190.136C266.933,174.553,266.892,167.099,266.892,151.525C266.965,148.875,267.144,146.29,266.916,143.73Z" fill="#000021" display="none" transform="translate(197.05,169.071) translate(-177.096,-169.071)"/>
    <script><![CDATA[/*
 KeyshapeJS v1.1.0 (c) 2018-2019 Pixofield Ltd | pixofield.com/keyshapejs/mit-license */
window.KeyshapeJS=function(){function t(a){return"undefined"!==typeof a}function x(a,b){return a&&0==a.indexOf(b)}function H(a){if(!isFinite(a))throw Error("Non-finite value");}function R(a){if(14>=a)return 16;var b=S[a];b||(b=t(ca[a])?0|(a.toLowerCase().indexOf("color")==a.length-5?48:0):1);return b}function K(a){return 0<=a?Math.pow(a,1/3):-Math.pow(-a,1/3)}function da(a,b,c,d){if(0==a)return 0==b?b=-d/c:(a=Math.sqrt(c*c-4*b*d),d=(-c+a)/(2*b),0<=d&&1>=d?b=d:(d=(-c-a)/(2*b),b=0<=d&&1>=d?d:0)),b;
var e=c/a-b*b/(a*a)/3;c=b*b*b/(a*a*a)/13.5-b*c/(a*a)/3+d/a;var n=c*c/4+e*e*e/27;b=-b/(3*a);if(0>=n){if(0==e&&0==c)return-K(d/a);a=Math.sqrt(c*c/4-n);d=Math.acos(-c/2/a);c=Math.cos(d/3);d=Math.sqrt(3)*Math.sin(d/3);a=K(a);e=2*a*c+b;if(0<=e&&1>=e)return e;e=-a*(c+d)+b;if(0<=e&&1>=e)return e;e=a*(d-c)+b;if(0<=e&&1>=e)return e}else{a=K(-c/2+Math.sqrt(n));c=K(-c/2-Math.sqrt(n));d=a+c+b;if(0<=d&&1>=d)return d;d=-(a+c)/2+b;if(0<=d&&1>=d)return d}return 0}function ea(a,b){if(48==a&&"number"===typeof b)return"rgba("+
(b>>>24)+","+(b>>>16&255)+","+(b>>>8&255)+","+(b&255)/255+")";if(64==a)return b=b.map(function(a){return a+"px"}),b.join(",");if(96==a){a="";for(var c=b.length,d=0;d<c;d+=2)a+=b[d],a+=b[d+1].join(",");return a}if(80==a){if(0==b[0])return"none";a="";c=b.length;for(d=0;d<c;)a+=T[b[d]],1==b[d]?a+="("+b[d+1]+") ":5==b[d]?(a+="("+b[d+1]+"px "+b[d+2]+"px "+b[d+3]+"px rgba("+(b[d+4]>>>24)+","+(b[d+4]>>16&255)+","+(b[d+4]>>8&255)+","+(b[d+4]&255)/255+")) ",d+=3):a=2==b[d]?a+("("+b[d+1]+"px) "):7==b[d]?a+
("("+b[d+1]+"deg) "):a+("("+(0>b[d+1]?0:b[d+1])+") "),d+=2;return a}return 32==a?b+"px":b}function y(a){return 0>=a?0:255<=a?255:a}function fa(a,b,c,d){if(16==a||32==a)return(c-b)*d+b;if(0==a)return.5>d?b:c;if(48==a){if("number"===typeof b&&"number"===typeof c){var e=1-d;return(y(e*(b>>>24)+d*(c>>>24))<<24|y(e*(b>>>16&255)+d*(c>>>16&255))<<16|y(e*(b>>>8&255)+d*(c>>>8&255))<<8|y(e*(b&255)+d*(c&255)))>>>0}return.5>d?b:c}if(64==a){0==b.length&&(b=[0]);0==c.length&&(c=[0]);var n=b.length;b.length!=c.length&&
(n=b.length*c.length);var l=[];for(a=0;a<n;++a){var f=b[a%b.length];var h=(c[a%c.length]-f)*d+f;0>h&&(h=0);l.push(h)}return l}if(96==a){if(b.length!=c.length)return.5>d?b:c;n=b.length;l=[];for(a=0;a<n;a+=2){if(b[a]!==c[a])return.5>d?b:c;l[a]=b[a];l[a+1]=[];for(f=0;f<b[a+1].length;++f)l[a+1].push((c[a+1][f]-b[a+1][f])*d+b[a+1][f])}return l}if(80==a){n=b.length;if(n!=c.length)return.5>d?b:c;l=[];for(a=0;a<n;){if(b[a]!=c[a]||1==b[a])return.5>d?b:c;l[a]=b[a];l[a+1]=(c[a+1]-b[a+1])*d+b[a+1];if(5==b[a]){l[a+
2]=(c[a+2]-b[a+2])*d+b[a+2];l[a+3]=(c[a+3]-b[a+3])*d+b[a+3];e=1-d;var g=b[a+4],q=c[a+4];h=e*(g>>>24)+d*(q>>>24);var m=e*(g>>16&255)+d*(q>>16&255);f=e*(g>>8&255)+d*(q>>8&255);e=e*(g&255)+d*(q&255);l[a+4]=(y(m)<<16|y(f)<<8|y(e))+16777216*(y(h)|0);a+=3}a+=2}return l}return 0}function U(a,b){a:{var c=a+b[2];var d=b[4].length;for(var e=0;e<d;++e)if(c<b[4][e]){c=e;break a}c=d-1}d=b[2];e=b[4][c-1]-d;a=(a-e)/(b[4][c]-d-e);if(b[6]&&b[6].length>c-1)if(d=b[6][c-1],1==d[0])if(0>=a)a=0;else if(1<=a)a=1;else{e=
d[1];var n=d[3];a=da(3*e-3*n+1,-6*e+3*n,3*e,-a);a=3*a*(1-a)*(1-a)*d[2]+3*a*a*(1-a)*d[4]+a*a*a}else 2==d[0]?(d=d[1],a=Math.ceil(a*d)/d):3==d[0]&&(d=d[1],a=Math.floor(a*d)/d);return fa(b[1]&240,b[5][c-1],b[5][c],a)}function L(){u||(v=(new Date).getTime()+V)}function O(a){if(a||!E){for(var b=!1,c=0;c<w.length;++c)w[c].J(a)&&(b=!0);if(a)for(;0<I.length;)if(a=I.shift(),c=a[0],1==a[1])c.onfinish&&(c.onfinish(),b=!0),c.I();else if(2==a[1]&&c.onloop)c.onloop();return b}}function W(){L();O(!0)&&!u?(E=!0,M(W)):
E=!1}function N(){E||(E=!0,M(W))}function X(a,b){var c=[];a.split(b).forEach(function(a){c.push(parseFloat(a))});return c}function A(a){-1==a.indexOf(",")&&(a=a.replace(" ",","));return X(a,",")}function Y(a){a._ks||(a._ks={});if(!a._ks.transform){for(var b=a._ks.transform=[],c=0;14>=c;++c)b[c]=0;b[10]=1;b[11]=1;if(a=a.getAttribute("transform")){a=a.trim().split(") ");for(c=a.length-2;0<=c;--c)if(x(a[c],"translate(")){for(var d=0;d<c;d++)a.shift();break}c=a.shift();x(c,"translate(")&&(c=A(c.substring(10)),
b[1]=c[0],b[2]=t(c[1])?c[1]:0,c=a.shift());x(c,"rotate(")&&(c=A(c.substring(7)),b[6]=c[0],c=a.shift());x(c,"skewX(")&&(c=A(c.substring(6)),b[7]=c[0],c=a.shift());x(c,"skewY(")&&(c=A(c.substring(6)),b[8]=c[0],c=a.shift());x(c,"scale(")&&(c=A(c.substring(6)),b[10]=c[0],b[11]=t(c[1])?c[1]:c[0],c=a.shift());x(c,"translate(")&&(c=A(c.substring(10)),b[13]=c[0],b[14]=t(c[1])?c[1]:0)}}}function Z(a){this.l=a;this.A=[];this.C=[];this.v=0;this.s=this.a=this.c=null;this.h=this.f=this.g=0;this.b=1;this.i=this.F=
this.o=!1}function J(a,b,c){b=a[b];void 0===b&&(b=a[c]);return b}function ha(a){return Array.isArray(a)?a:x(a,"cubic-bezier(")?(a=a.substring(13,a.length-1).split(","),[1,parseFloat(a[0]),parseFloat(a[1]),parseFloat(a[2]),parseFloat(a[3])]):x(a,"steps(")?(a=a.substring(6,a.length-1).split(","),[a[1]&&"start"==a[1].trim()?2:3,parseFloat(a[0])]):[0]}function ia(a){a=a.trim();return x(a,"#")?(parseInt(a.substring(1),16)<<8)+255:x(a,"rgba(")?(a=a.substring(5,a.length-1),a=a.split(","),(parseInt(a[0],
10)<<24)+(parseInt(a[1],10)<<16)+(parseInt(a[2],10)<<8)+255*parseFloat(a[3])<<0):a}function aa(a){!1===a.i&&(w.push(a),a.i=!0,!1!==a.l.autoplay&&a.play());return this}function P(a){if(!0===a.i){a._cancel();var b=w.indexOf(a);-1<b&&w.splice(b,1);b=I.indexOf(a);-1<b&&I.splice(b,1);a.i=!1}return this}var Q=Error("Not in timeline list"),ba="mpath posX posY    rotate skewX skewY  scaleX scaleY  anchorX anchorY".split(" "),ja=" translate translate    rotate skewX skewY  scale scale  translate translate".split(" "),
T="none url blur brightness contrast drop-shadow grayscale hue-rotate invert opacity saturate sepia".split(" "),M=window.requestAnimationFrame||window.webkitRequestAnimationFrame||window.mozRequestAnimationFrame||window.oRequestAnimationFrame||window.msRequestAnimationFrame||null;M||(M=function(a){window.setTimeout(a,16)});var S={d:97,fill:48,fillOpacity:16,filter:80,height:33,opacity:16,offsetDistance:33,stroke:48,strokeDasharray:64,strokeDashoffset:32,strokeOpacity:16,strokeWidth:32,transform:1,
width:33},ca=window.getComputedStyle(document.documentElement),E=!1,v=(new Date).getTime(),u,V=0,w=[],I=[];Z.prototype={B:function(a){var b=0;if(null!==this.c){var c=this.j();0<this.b&&null!==c&&c>=this.f?this.h?(this.c=v-this.g/this.b,this.h--,b=2):(b=1,a?this.a=c:this.a=this.s?Math.max(this.s,this.f):this.f):0>this.b&&null!==c&&c<=this.g?this.h&&Infinity!=this.f?(this.c=v-this.f/this.b,this.h--,b=2):(this.h=0,b=1,a?this.a=c:this.a=this.s?Math.min(this.s,this.g):this.g):null!==c&&0!=this.b&&(a&&
null!==this.a&&(this.c=v-this.a/this.b),this.a=null)}this.s=this.j();return b},J:function(a){a&&(this.o&&(this.o=!1,null===this.c&&(0!=this.b&&null!==this.a?(this.c=v-this.a/this.b,this.a=null):this.c=v)),null===this.a&&null!==this.c&&(a=this.B(!1),0!=a&&I.push([this,a])));a=this.j();if(null===a)return!1;for(var b=this.A,c=this.C,d=0;d<b.length;++d){for(var e=b[d],n=!1,l=0;l<c[d].length;++l){var f=c[d][l],h=f[0];if(null!==h){var g=f[2];var q=f[4].length,m=f[4][q-1]-g;g=0==m?f[5][q-1]:a<=g?f[5][0]:
a>=g+f[3]?0==f[3]%m?f[5][q-1]:U(f[3]%m,f):U((a-g)%m,f);0==h?(e._ks.mpath=f[8],e._ks.transform[h]=g,n=!0):14>=h?(e._ks.transform[h]=g,n=!0):(g=ea(f[1]&240,g),f[1]&1?e.setAttribute(h,g):e.style[h]=g)}}if(n){Y(e);n=e._ks.transform;l="";if(f=e._ks.mpath)g=n[0],0>g&&(g=0),100<g&&(g=100),g=g*f[2]/100,h=f[1].getPointAtLength(g),l="translate("+h.x+","+h.y+") ",f[0]&&(.5>g?(g=h,h=f[1].getPointAtLength(.5)):g=f[1].getPointAtLength(g-.5),l+="rotate("+180*Math.atan2(h.y-g.y,h.x-g.x)/Math.PI+") ");for(f=1;f<n.length;++f)h=
n[f],h!=(10==f||11==f?1:0)&&(l+=" "+ja[f]+"(",l=2>=f?l+(1==f?h+",0":"0,"+h):13<=f?l+(13==f?h+",0":"0,"+h):10<=f?l+(10==f?h+",1":"1,"+h):l+h,l+=")");e.setAttribute("transform",l)}}return"running"==this.m()},I:function(){!1!==this.l.autoremove&&"finished"==this.m()&&P(this)},D:function(){if(!this.F){this.F=!0;for(var a=this.A,b=this.C,c=0;c<a.length;++c)for(var d=a[c],e=0;e<b[c].length;++e)14>=b[c][e][0]&&Y(d)}},u:function(a){if("number"==typeof a)return a;if(!t(this.l.markers)||!t(this.l.markers[a]))throw Error("Invalid marker: "+
a);return+this.l.markers[a]},play:function(a){t(a)&&null!==a&&(a=this.u(a),H(a),0>this.b&&a<this.g&&(a=this.g),0<this.b&&a>this.f&&(a=this.f),this.w(a,!0));if(!this.i)throw Q;a=this.j();if(0<this.b&&(null===a||a>=this.f))this.a=this.g;else if(0>this.b&&(null===a||a<=this.g)){if(Infinity==this.f)throw Error("Cannot seek to Infinity");this.a=this.f}else 0==this.b&&null===a&&(this.a=this.g);if(null===this.a)return this;this.c=null;this.o=!0;this.D();N();return this},pause:function(a){if(!this.i)throw Q;
t(a)&&(a=this.u(a),H(a));if("paused"!=this.m()){L();var b=this.j();if(null===b)if(0<=this.b)this.a=this.g;else{if(Infinity==this.f)throw Error("Cannot seek to Infinity");this.a=this.f}null!==this.c&&null===this.a&&(this.a=b);this.c=null;this.o=!1;this.B(!1);this.D();N()}t(a)&&this.w(a,!0);return this},range:function(a,b){if(0==arguments.length)return{"in":this.g,out:this.f};var c=this.u(a),d=this.v;t(b)&&(d=this.u(b));H(c);if(0>c||0>d||c>=d||isNaN(d))throw Error("Invalid range");var e=this.m();this.g=
c;this.f=d;"finished"==e&&"running"==this.m()&&this.play();return this},loop:function(a){if(!t(a))return{count:this.h};this.h=!0===a?Infinity:Math.floor(a);if(0>this.h||isNaN(this.h))this.h=0;return this},j:function(){return null!==this.a?this.a:null===this.c?null:(v-this.c)*this.b},w:function(a,b){b&&L();null!==a&&(this.D(),null!==this.a||null===this.c||0==this.b?(this.a=a,O(!1)):this.c=v-a/this.b,this.i||(this.c=null),this.s=null,this.B(!0),N())},G:function(){return this.j()},time:function(a){if(t(a)){if(!this.i)throw Q;
a=this.u(a);H(a);this.w(a,!0);return this}return this.G()},m:function(){var a=this.j();return this.o?"running":null===a?"idle":null===this.c?"paused":0<this.b&&a>=this.f||0>this.b&&a<=this.g?"finished":"running"},state:function(){return this.m()},duration:function(){return this.v},H:function(a){H(a);L();var b=this.j();this.b=a;null!==b&&this.w(b,!1)},rate:function(a){return t(a)?(this.H(a),this):this.b},marker:function(a){return t(this.l.markers)?this.l.markers[a]:void 0},_cancel:function(){if(!this.i||
"idle"==this.m())return this;this.c=this.a=null;this.o=!1;return this}};return{version:"1.1.0",animate:function(){var a={};if(1==arguments.length%2){a=arguments[arguments.length-1];var b={};for(c in a)b[c]=a[c];a=b}var c=new Z(a);a=arguments;for(var d=b=0;d<a.length-1;d+=2){var e=a[d];var n=e instanceof Element?e:document.getElementById(e.substring(1));if(!n)throw Error("Invalid target: "+e);e=n;n=a[d+1];e._ks||(e._ks={});for(var l=[],f=0;f<n.length;++f){var h=n[f],g=J(h,"p","property");if("string"!=
typeof g||-1!=g.indexOf("-")||""===g||!(0<S[g]||0<=ba.indexOf(g)))throw Error("Invalid property: "+g);var q=ba.indexOf(g);""!==g&&0<=q&&(g=q);q=R(g);var m=J(h,"t","times");if(!m||2>m.length)throw Error("Not enough times");m=m.slice();if(!isFinite(m[0])||0>m[0])throw Error("Invalid time: "+m[0]);for(var B=1;B<m.length;++B)if(!isFinite(m[B])||0>m[B]||m[B]<m[B-1])throw Error("Invalid time: "+m[B]);B=m[0];var v=m[m.length-1]-B,y=h.iterations||0;1>y&&(y=1);v*=y;b<v+B&&(b=v+B);var u=J(h,"v","values");if(!u||
u.length!=m.length)throw Error("Values do not match times");u=u.slice();for(var C=g,k=u,w=R(C)&240,p=0;p<k.length;++p)if(96==w){for(var G=k[p].substring(6,k[p].length-2).match(/[A-DF-Za-df-z][-+0-9eE., ]*/ig),A=[],r=0;r<G.length;++r){A.push(G[r][0]);for(var z=1<G[r].trim().length?G[r].substring(1).split(","):[],F=0;F<z.length;++F)z[F]=parseFloat(z[F]);A.push(z)}k[p]=A}else if(48==w)x(k[p],"#")?(G=9==k[p].length,k[p]=parseInt(k[p].substring(1),16),G||(k[p]=256*k[p]|255)):x(k[p],"url(")||"none"==k[p]||
(console.warn("unsupported color: "+k[p]),k[p]=0);else if(80==w){G=k;A=p;r=k[p];if("none"==r)r=[0];else{z=[];for(var D=r.indexOf("(");0<D;)if(F=T.indexOf(r.substring(0,D)),0<=F){z.push(F);var E=r.indexOf(") ");0>E&&(E=r.length-1);D=r.substring(D+1,E).split(" ");5==F?(z.push(parseFloat(D[0])),z.push(parseFloat(D[1])),z.push(parseFloat(D[2])),z.push(ia(D[3]))):1==F?z.push(D[0]):z.push(parseFloat(D[0]));r=r.substring(E+1).trim();D=r.indexOf("(")}else break;r=z}G[A]=r}else 64==w?"none"!=k[p]?/^[0-9 .]*$/.test(k[p])?
k[p]=X(k[p]," "):(console.warn("unsupported value: "+k[p]),k[p]=[0]):k[p]=[0]:32==w?(H(k[p]),k[p]=parseFloat(k[p])):0===C&&(k[p]=parseFloat(k[p]));C=J(h,"e","easing");k=m.length;for(C||(C=[]);C.length<k;)C.push([1,0,0,.58,1]);for(k=0;k<C.length;++k)C[k]=ha(C[k]);q=[g,q,B,v,m,u,C,y];m=J(h,"mp","motionPath");t(m)&&0===g&&(q[8]=[],q[8][0]=h.motionRotate,h=document.createElementNS("http://www.w3.org/2000/svg","path"),m||(m="M0,0"),h.setAttribute("d",m),q[8][1]=h,q[8][2]=h.getTotalLength());l.push(q)}0<
l.length&&(c.A.push(e),c.C.push(l))}c.v=b;c.g=0;c.f=c.v;aa(c);return c},add:aa,remove:P,removeAll:function(){for(var a=w.length-1;0<=a;--a)P(w[a]);return this},timelines:function(){return w.slice()},globalPlay:function(){u&&(V=u-(new Date).getTime(),u=void 0,N());return this},globalPause:function(){u||(u=v,O(!1));return this},globalState:function(){return u?"paused":"running"}}}();
]]></script>
    <script><![CDATA[if(KeyshapeJS.version.indexOf('1.')!=0)throw Error('Expected KeyshapeJS v1.*.*');window.ks=document.ks=KeyshapeJS;(function(ks){
ks.animate("#_a0",[{p:'mpath',t:[0,2000,2300,2400,3000],v:['0%','0%','50%','100%','100%'],e:[[1,0.75,0,0.58,1],[1,0.75,0,0.58,1],[1,0.75,0,0.58,1],[1,0.75,0,0.58,1],[0]],mp:"M236.22,23.6772L236.22,23.6772L241.22,23.6772L236.22,23.6772L236.22,23.6772"},{p:'rotate',t:[0,2000,2300,2400,3000],v:[0,0,11,0,0],e:[[1,0.75,0,0.58,1],[1,0.75,0,0.58,1],[1,0.75,0,0.58,1],[1,0.75,0,0.58,1],[0]]}],
"#horn",[{p:'mpath',t:[0,800,2200,3000],v:['0%','23.775359%','73.775359%','100%'],e:[[0],[0],[0],[0]],mp:"M316.386,64.8148L310.474,64.8148L322.907,64.8148L316.386,64.8148"}],
"#_a1",[{p:'d',t:[0,300,600,900,1000,1100,1300],v:["path('M256.577,120.187C252.87,109.799,244.968,91.9994,240.757,81.8224C237.782,74.6448,234.368,67.638,232.149,60.1597C232.149,60.1597,327.133,60.0703,327.133,60.0703C328.507,60.0703,329.897,60.0134,330.783,61.3139C335.961,68.9873,341.862,76.1649,346.227,84.3585C324.367,110.334,268.323,117.765,256.577,120.187Z')","path('M256.577,120.187C252.87,109.799,244.968,91.9994,240.757,81.8224C237.782,74.6448,234.368,67.638,232.149,60.1597C243.832,57.9989,313.888,58.3354,323.377,60.3524C324.751,60.3524,334.946,60.7506,335.832,62.0511C347,65.6411,349.334,65.2042,353.699,73.3978C329.389,97.4036,270.804,116.256,256.577,120.187Z')","path('M256.577,120.187C252.87,109.799,244.968,91.9994,240.757,81.8224C237.782,74.6448,234.368,67.638,232.149,60.1597C255.515,55.8381,306.86,55.7894,325.839,59.8235C327.212,59.8235,344.168,63.6354,345.054,64.9359C348.698,70.9618,352.458,71.2823,351.048,80.8019C324.288,102.838,273.284,114.748,256.577,120.187Z')","path('M256.577,120.187C252.87,109.799,244.968,91.9994,240.757,81.8224C237.782,74.6448,234.368,67.638,232.149,60.1597C267.198,53.6774,299.832,53.2434,328.3,59.2946C329.674,59.2946,345.043,62.2251,345.929,63.5256C342.05,71.9875,341.862,76.1649,346.227,84.3585C317.017,104.425,275.765,113.239,256.577,120.187Z')","path('M256.577,120.187C252.87,109.799,244.968,91.9994,240.757,81.8224C237.782,74.6448,234.368,67.638,232.149,60.1597C255.515,55.8381,306.86,55.7894,325.839,59.8235C327.212,59.8235,344.168,63.6354,345.054,64.9359C348.698,70.9618,352.458,71.2823,351.048,80.8019C324.288,102.838,273.284,114.748,256.577,120.187Z')","path('M256.577,120.187C252.87,109.799,244.968,91.9994,240.757,81.8224C237.782,74.6448,234.368,67.638,232.149,60.1597C243.832,57.9989,313.888,58.3354,323.377,60.3524C324.751,60.3524,334.946,60.7506,335.832,62.0511C347,65.6411,349.334,65.2042,353.699,73.3978C329.389,97.4036,270.804,116.256,256.577,120.187Z')","path('M256.577,120.187C252.87,109.799,244.968,91.9994,240.757,81.8224C237.782,74.6448,234.368,67.638,232.149,60.1597C232.149,60.1597,327.133,60.0703,327.133,60.0703C328.507,60.0703,329.897,60.0134,330.783,61.3139C335.961,68.9873,341.862,76.1649,346.227,84.3585C324.367,110.334,268.323,117.765,256.577,120.187Z')"],e:[[1,0.42,0,0.32,1],[1,0.42,0,0.32,1],[1,0.42,0,0.32,1],[0],[1,0.42,0,0.32,1],[1,0.42,0,0.32,1],[0]]}],
"#_a2",[{p:'mpath',t:[0,900,1300],v:['0%','50%','100%'],e:[[1,0.42,0,0.32,1],[0],[0]],mp:"M113.214,49.7812L112.387,60.5223L113.214,49.7812"},{p:'scaleX',t:[0,900,1300],v:[1,1,1],e:[[1,0.42,0,0.32,1],[0],[0]]},{p:'scaleY',t:[0,900,1300],v:[1,-1.04764,1],e:[[1,0.42,0,0.32,1],[0],[0]]}],
"#horn_l",[{p:'mpath',t:[0,800,2200,3000],v:['0%','23.775209%','73.775209%','100%'],e:[[0],[0],[0],[0]],mp:"M77.6,65.2294L71.6881,65.2294L84.121,65.2294L77.6,65.2294"}],
"#sh_r",[{p:'mpath',t:[0,800,1400,2200,3000],v:['0%','13.844162%','37.353557%','69.035621%','100%'],e:[[1,0.75,0,0.58,1],[1,0.75,0,0.58,1],[1,0.75,0,0.58,1],[1,0.75,0,0.58,1],[0]],mp:"M253.774,219.522L252.53,221.595L255.433,218.692L256.677,224.083L253.774,219.521"}],
"#sh_l",[{p:'mpath',t:[0,800,1400,2200,3000],v:['0%','13.848348%','37.35658%','69.037159%','100%'],e:[[1,0.75,0,0.58,1],[1,0.75,0,0.58,1],[1,0.75,0,0.58,1],[1,0.75,0,0.58,1],[0]],mp:"M140.108,219.613L138.864,221.687L141.767,218.784L143.011,224.175L140.108,219.613"}],
"#mouth",[{p:'mpath',t:[0,700,1400,2200,3000],v:['0%','21.40811%','42.779639%','71.655141%','100%'],e:[[1,0.42,0,0.25,1],[1,0.42,0,0.25,1],[1,0.42,0,0.25,1],[1,0.42,0,0.25,1],[0]],mp:"M195.993,278.445L194.904,282.503L195.847,278.416L198.991,283.131L195.993,278.445"}],
"#ring",[{p:'mpath',t:[0,3000],v:['0%','0%'],e:[[0],[0]],mp:"M197.45,251.665L197.45,251.665"},{p:'skewX',t:[0,700,1500,2200,3000],v:[0,-4,-0.61,4.67,0],e:[[1,0.42,0,0.25,1],[1,0.42,0,0.25,1],[1,0.42,0,0.25,1],[1,0.42,0,0.25,1],[0]]},{p:'skewY',t:[0,700,1500,2200,3000],v:[0,0,0,0,0],e:[[1,0.42,0,0.25,1],[1,0.42,0,0.25,1],[1,0.42,0,0.25,1],[1,0.42,0,0.25,1],[0]]}],
{autoremove:false}).range(0,3000);
if(document.location.search.substr(1).split('&').indexOf('global=paused')>=0)ks.globalPause()})(KeyshapeJS);
]]></script>
</svg>
