<svg width="129" height="44" fill="none" xmlns="http://www.w3.org/2000/svg"><path d="M28.718 17.187l-19.42 2.47c.771 3.326 3.7 4.99 7.553 4.99 3.134 0 6.473-.757 8.785-1.866l2.671 6.956c-2.825 1.31-7.5 2.217-12.176 2.217C5.343 31.954 0 25 0 15.927 0 6.603 5.548 0 14.898 0c9.094 0 13.923 5.947 13.923 14.364.051.958.051 1.865-.103 2.823zM14.693 6.603c-3.34 0-5.96 2.268-6.01 7.308l10.993-1.361c0-3.881-1.952-5.947-4.983-5.947zm24.711 6.552c-3.185 0-5.805-2.57-5.805-5.696 0-3.125 2.62-5.695 5.805-5.695 3.185.05 5.805 2.62 5.805 5.746 0 3.074-2.62 5.645-5.805 5.645zm0 18.648c-3.185 0-5.805-2.57-5.805-5.695 0-3.125 2.62-5.696 5.805-5.696 3.185 0 5.805 2.57 5.805 5.696 0 3.175-2.62 5.695-5.805 5.695zm46.75-.554v-19.96c0-2.52-1.541-3.98-4.264-3.98-1.438 0-2.671.402-3.545 1.007V31.25H68.79V11.14c0-2.319-1.644-3.78-4.47-3.78-1.438 0-2.466.302-3.34.604V31.25h-9.555V2.218C54.713.958 59.03 0 63.704 0c5.137 0 8.168 1.36 10.069 2.822C75.725 1.462 79.681 0 84.407 0c7.09 0 11.251 3.931 11.251 10.231V31.25h-9.504zM114.769 44c-5.497 0-9.607-1.008-12.586-2.42l2.62-7.257c2.158 1.058 5.394 1.815 8.939 1.815 4.058 0 5.857-1.916 5.857-5.545v-1.461c-1.439.604-3.597.957-5.395.957-7.963 0-13.306-5.493-13.306-14.565 0-10.131 6.165-15.474 16.543-15.474 4.726 0 8.887.958 11.559 2.218v28.376C129 39.464 123.297 44 114.769 44zm4.778-36.49c-.668-.202-1.798-.403-3.082-.403-3.699 0-6.062 2.62-6.062 8.064 0 5.393 2.26 8.013 5.959 8.013 1.079 0 2.466-.352 3.185-.705V7.509z" fill="#fff"/></svg>